<svg width="33" height="34" viewBox="0 0 33 34" fill="none" xmlns="http://www.w3.org/2000/svg">
<path d="M0.432636 6.23308C0.480579 5.26495 1.30989 4.52293 2.2773 4.58376C5.0765 4.75763 10.5633 4.75906 15.562 0.422885C16.2117 -0.140962 17.1806 -0.140962 17.8303 0.422885C22.8291 4.75906 28.3158 4.75763 31.115 4.58376C32.0824 4.52293 32.9118 5.26495 32.9597 6.23308C33.2159 11.4014 32.7057 26.6933 17.3681 33.0673C16.938 33.2455 16.4543 33.2455 16.0243 33.0673C0.686653 26.6933 0.176476 11.4014 0.432636 6.23308Z" fill="#9CBCFF"/>
<path d="M16.0233 33.0673C16.4534 33.2455 16.9371 33.2455 17.3671 33.0673C21.0877 31.5206 23.9357 29.4496 26.112 27.1259C26.3811 26.8386 26.2861 26.3721 25.9265 26.2119C25.2903 25.9284 24.5863 25.5791 23.8452 25.1525C23.6209 25.0233 23.338 25.059 23.1549 25.242C21.4494 26.9457 19.3851 28.3786 16.9329 29.5082C16.7826 29.5776 16.6079 29.5776 16.4575 29.5082C11.0552 27.0188 7.53266 23.0583 5.58782 17.9715C4.27839 14.5462 3.89836 11.1367 3.83683 8.64945C3.82895 8.33318 4.08104 8.07207 4.39724 8.06492C7.5092 7.99666 10.4461 7.36455 13.1667 6.07142C13.3527 5.98305 13.4784 5.80259 13.4939 5.59731C13.5697 4.59691 13.706 3.67758 13.867 2.86279C13.9625 2.3793 13.4391 2.0108 13.0148 2.26138C8.79402 4.7539 4.60539 4.72857 2.2763 4.58367C1.30889 4.52285 0.479578 5.26487 0.431637 6.23299C0.175545 11.4014 0.685726 26.6932 16.0233 33.0673Z" fill="#80AAFF"/>
<path d="M17.0315 4.17131C20.5974 6.76021 24.6236 7.96912 28.9937 8.06507C29.3101 8.07201 29.5624 8.33297 29.5545 8.64938C29.4924 11.1369 29.1127 14.5465 27.8034 17.9715C25.8583 23.0583 22.3356 27.0187 16.9337 29.5082C16.783 29.5776 16.6089 29.5776 16.4583 29.5082C11.0563 27.0187 7.53366 23.0583 5.5886 17.9715C4.2793 14.5465 3.89971 11.1369 3.8376 8.64945C3.82973 8.33304 4.0816 8.07194 4.39801 8.06493C8.76825 7.96897 12.7946 6.76007 16.3604 4.17131C16.5606 4.02599 16.8315 4.02599 17.0315 4.17131Z" fill="#EEF7FF"/>
<path d="M3.83738 8.64947C3.89892 11.1367 4.27894 14.5462 5.58838 17.9715C7.53322 23.0583 11.0558 27.0188 16.4581 29.5082C16.6084 29.5776 16.7831 29.5776 16.9334 29.5082C19.2877 28.4237 21.2845 27.0596 22.9494 25.4448C23.2144 25.1877 23.1719 24.7523 22.8618 24.5517C21.6269 23.753 20.3304 22.7403 19.1002 21.4632C19.0325 21.393 18.9139 21.4403 18.9139 21.5377C18.9139 22.17 18.4014 22.6827 17.769 22.6827H15.6224C14.9901 22.6827 14.4775 22.1701 14.4775 21.5378V18.8187H11.7585C11.1262 18.8187 10.6136 18.3062 10.6136 17.6739V15.5272C10.6136 14.8949 11.1262 14.3824 11.7585 14.3824H14.4775C14.4775 13.9106 14.487 13.8673 14.4489 13.7512C13.6409 11.2957 13.3929 8.9364 13.4344 6.85189C13.4427 6.43466 13.0169 6.14701 12.6348 6.31487C10.0647 7.44421 7.30775 8.00105 4.39786 8.06494C4.08159 8.0721 3.82951 8.33313 3.83738 8.64947Z" fill="#CBE3FA"/>
<path d="M10.6141 15.5272V17.6738C10.6141 18.3064 11.1265 18.8187 11.759 18.8187H14.478V21.5378C14.478 22.1703 14.9904 22.6826 15.6229 22.6826H17.7695C18.4021 22.6826 18.9144 22.1702 18.9144 21.5377V18.8187H21.6335C22.266 18.8187 22.7783 18.3064 22.7783 17.6738V15.5272C22.7783 14.8947 22.266 14.3824 21.6335 14.3824H18.9144V11.6633C18.9144 11.0308 18.4021 10.5184 17.7695 10.5184H15.6229C14.9904 10.5184 14.478 11.0308 14.478 11.6633V14.3824H11.759C11.1265 14.3824 10.6141 14.8947 10.6141 15.5272Z" fill="#FF8C95"/>
<path d="M10.6138 15.5272V17.6739C10.6138 18.3062 11.1263 18.8187 11.7587 18.8187H14.4777V21.5378C14.4777 22.1701 14.9903 22.6827 15.6226 22.6827H17.7692C18.3582 22.6827 18.9141 22.2296 18.9141 21.4917C18.9141 21.3475 18.859 21.2092 18.7614 21.103C16.9348 19.1142 15.5472 16.7927 14.657 14.3512C14.6215 14.2539 14.4777 14.2787 14.4777 14.3824H11.7587C11.1264 14.3824 10.6138 14.8949 10.6138 15.5272Z" fill="#FF6D7A"/>
</svg>
