<svg width="52" height="52" viewBox="0 0 52 52" fill="none" xmlns="http://www.w3.org/2000/svg">
<path d="M0.0013237 49.8335C0.0013237 50.4081 0.229576 50.9591 0.635864 51.3654C1.04216 51.7717 1.59321 52 2.16779 52H49.83C50.4046 52 50.9557 51.7717 51.362 51.3654C51.7683 50.9591 51.9965 50.4081 51.9965 49.8335C51.9965 49.2589 51.7683 48.7078 51.362 48.3015C50.9557 47.8952 50.4046 47.6669 49.83 47.6669H2.16779C1.59321 47.6669 1.04216 47.8952 0.635864 48.3015C0.229576 48.7078 0.0013237 49.2589 0.0013237 49.8335ZM51.3661 18.5315C51.8329 17.6655 52.0492 16.6867 51.9906 15.7047C51.9321 14.7227 51.601 13.7764 51.0346 12.9721C50.109 11.614 48.8693 10.4992 47.4209 9.72234L31.1703 1.26421C29.573 0.433633 27.7992 0 25.9989 0C24.1986 0 22.4248 0.433633 20.8276 1.26421L4.57907 9.72884C3.13066 10.5057 1.89104 11.6205 0.965401 12.9786C0.398991 13.7829 0.0679359 14.7292 0.00938797 15.7112C-0.0491638 16.6932 0.167107 17.672 0.63393 18.538C1.13652 19.4887 1.8903 20.2833 2.8132 20.8353C3.73611 21.3873 4.79276 21.6755 5.86811 21.6686H6.50072V39.0008H4.33426C3.75967 39.0008 3.20862 39.2291 2.80233 39.6354C2.39604 40.0417 2.16779 40.5928 2.16779 41.1674C2.16779 41.742 2.39604 42.293 2.80233 42.6993C3.20862 43.1056 3.75967 43.3339 4.33426 43.3339H47.6636C48.2382 43.3339 48.7892 43.1056 49.1955 42.6993C49.6018 42.293 49.83 41.742 49.83 41.1674C49.83 40.5928 49.6018 40.0417 49.1955 39.6354C48.7892 39.2291 48.2382 39.0008 47.6636 39.0008H45.4971V21.6686H46.1297C47.2061 21.6753 48.2637 21.3863 49.1871 20.8331C50.1104 20.2799 50.8642 19.4837 51.3661 18.5315ZM41.1642 39.0008H34.6648V21.6686H41.1642V39.0008ZM30.3318 21.6686V39.0008H21.666V21.6686H30.3318ZM10.8337 21.6686H17.3331V39.0008H10.8337V21.6686ZM47.5271 16.5231C47.3912 16.7737 47.1889 16.9821 46.9424 17.1254C46.6959 17.2687 46.4148 17.3414 46.1297 17.3355H5.86811C5.58307 17.3414 5.30191 17.2687 5.05544 17.1254C4.80896 16.9821 4.60667 16.7737 4.47074 16.5231C4.37173 16.3575 4.32384 16.1663 4.3331 15.9736C4.34235 15.7809 4.40832 15.5952 4.52274 15.4398C5.04766 14.6597 5.7529 14.0176 6.57871 13.5679L22.8272 5.1033C23.8064 4.59509 24.8935 4.32979 25.9967 4.32979C27.1 4.32979 28.1871 4.59509 29.1663 5.1033L45.4148 13.5679C46.2402 14.019 46.9453 14.6617 47.4708 15.442C47.5854 15.5967 47.6519 15.7818 47.6619 15.974C47.6719 16.1663 47.625 16.3573 47.5271 16.5231Z" fill="#0897A5"/>
</svg>
