<svg width="13" height="15" viewBox="0 0 13 15" fill="none" xmlns="http://www.w3.org/2000/svg">
<path d="M11.1219 9.27461H3.2742V6.25768C3.2742 4.29028 4.87481 2.68969 6.84219 2.68969C8.80956 2.68969 10.4102 4.29028 10.4102 6.25768V7.19866C10.4102 7.48529 10.6425 7.71764 10.9292 7.71764C11.2158 7.71764 11.4481 7.48529 11.4481 7.19866V6.25768C11.4481 3.89338 9.65751 1.93945 7.36117 1.68081V1.36628C7.36117 1.07964 7.12882 0.84729 6.84219 0.84729C6.55555 0.84729 6.3232 1.07964 6.3232 1.36628V1.68078C4.02686 1.93945 2.23623 3.89336 2.23623 6.25765V9.30868C1.52641 9.45926 0.992188 10.0909 0.992188 10.8449C0.992188 11.7108 1.69663 12.4152 2.56251 12.4152H5.1307V12.4219C5.1307 13.3656 5.89846 14.1334 6.84219 14.1334C7.78591 14.1334 8.55368 13.3656 8.55368 12.4219V12.4152H11.1219C11.9877 12.4152 12.6922 11.7108 12.6922 10.8449C12.6922 9.97903 11.9877 9.27461 11.1219 9.27461ZM7.5157 12.4219C7.5157 12.7932 7.21357 13.0954 6.84219 13.0954C6.4708 13.0954 6.16867 12.7932 6.16867 12.4219V12.4152H7.5157V12.4219ZM11.1219 11.3773H2.56251C2.26897 11.3773 2.03016 11.1384 2.03016 10.8449C2.03016 10.5514 2.26897 10.3126 2.56251 10.3126H11.1219C11.4154 10.3126 11.6542 10.5514 11.6542 10.8449C11.6542 11.1384 11.4154 11.3773 11.1219 11.3773Z" fill="#0897A5"/>
</svg>
