<svg width="32" height="24" viewBox="0 0 32 24" fill="none" xmlns="http://www.w3.org/2000/svg">
<path d="M7.6001 19.0273C8.70467 19.0273 9.6001 18.14 9.6001 17.0453C9.6001 15.9507 8.70467 15.0633 7.6001 15.0633C6.49553 15.0633 5.6001 15.9507 5.6001 17.0453C5.6001 18.14 6.49553 19.0273 7.6001 19.0273Z" fill="#21BAC9"/>
<path d="M25.3333 0H6.66667C4.89921 0.0020981 3.20474 0.698834 1.95496 1.93738C0.705176 3.17592 0.00211714 4.85514 0 6.60671L0 17.1774C0.00211714 18.929 0.705176 20.6082 1.95496 21.8468C3.20474 23.0853 4.89921 23.782 6.66667 23.7841H25.3333C27.1008 23.782 28.7953 23.0853 30.045 21.8468C31.2948 20.6082 31.9979 18.929 32 17.1774V6.60671C31.9979 4.85514 31.2948 3.17592 30.045 1.93738C28.7953 0.698834 27.1008 0.0020981 25.3333 0V0ZM6.66667 2.64268H25.3333C26.3942 2.64268 27.4116 3.06032 28.1618 3.80372C28.9119 4.54712 29.3333 5.55538 29.3333 6.60671H2.66667C2.66667 5.55538 3.08809 4.54712 3.83824 3.80372C4.58839 3.06032 5.6058 2.64268 6.66667 2.64268V2.64268ZM25.3333 21.1415H6.66667C5.6058 21.1415 4.58839 20.7238 3.83824 19.9804C3.08809 19.237 2.66667 18.2288 2.66667 17.1774V9.24939H29.3333V17.1774C29.3333 18.2288 28.9119 19.237 28.1618 19.9804C27.4116 20.7238 26.3942 21.1415 25.3333 21.1415Z" fill="#0897A5"/>
</svg>
