<svg width="37" height="37" viewBox="0 0 37 37" fill="none" xmlns="http://www.w3.org/2000/svg">
<path d="M3.01022 17.9309C3.53439 14.2881 7.17895 13.3094 7.53176 9.98572C5.88644 10.7158 3.91856 10.4863 2.47709 9.29479C0.879934 12.1727 0.793692 15.0003 3.01022 17.9309Z" fill="#2B3078"/>
<path d="M10.0536 7.37598C11.9185 7.1005 13.5134 5.79366 15.04 4.50362C17.1535 2.7175 20.0935 0.513688 22.8958 0.727574C17.8871 -0.817784 12.4695 0.280764 9.16211 2.31549C10.4333 3.72535 10.7301 5.70184 10.0536 7.37598Z" fill="#2B3078"/>
<path d="M33.9952 19.0651C33.471 22.7068 29.8253 23.6866 29.4736 27.0102C31.1178 26.279 33.0868 26.5086 34.5283 27.7012C36.1255 24.821 36.2117 21.9957 33.9952 19.0651Z" fill="#2B3078"/>
<path d="M26.9486 29.6196C25.0838 29.8951 23.4889 31.202 21.9612 32.492C19.8488 34.277 16.9087 36.4819 14.1064 36.2692C19.1152 37.8145 24.5328 36.7149 27.8402 34.6801C26.569 33.2703 26.2721 31.2927 26.9486 29.6196Z" fill="#2B3078"/>
<path d="M19.0723 3.00945C22.7146 3.53353 23.6946 7.17856 27.0177 7.53018C26.2863 5.88628 26.5171 3.91763 27.7088 2.47753C24.8292 0.879542 22.0022 0.794435 19.0723 3.00945Z" fill="#009F3C"/>
<path d="M29.6221 10.0516C29.8987 11.9161 31.2047 13.5108 32.4949 15.0382C34.2814 17.1513 36.4856 20.0909 36.2728 22.8915C37.8184 17.8837 36.7185 12.4682 34.6835 9.16025C33.2734 10.4312 31.2976 10.7291 29.6221 10.0516Z" fill="#009F3C"/>
<path d="M17.9344 33.9861C14.292 33.4621 13.312 29.817 9.98779 29.4643C10.7192 31.1093 10.4896 33.078 9.29785 34.5192C12.1774 36.1172 15.0044 36.2023 17.9344 33.9861Z" fill="#009F3C"/>
<path d="M7.37813 26.9442C7.10149 25.0786 5.79554 23.4839 4.50415 21.9576C2.71883 19.8456 0.514623 16.9061 0.727428 14.1043C-0.818206 19.1121 0.281658 24.5287 2.31674 27.8356C3.72685 26.5646 5.7037 26.2667 7.37813 26.9442Z" fill="#009F3C"/>
<path d="M34.309 2.69516C35.8558 4.24163 35.8558 6.74892 34.309 8.2954C32.7634 9.84188 30.2556 9.84188 28.7089 8.2954C27.1621 6.74892 27.1621 4.24163 28.7089 2.69516C30.2556 1.14868 32.7634 1.14868 34.309 2.69516Z" fill="#009F3C"/>
<path d="M8.2966 28.7019C9.84223 30.2484 9.84223 32.7545 8.2966 34.301C6.74985 35.8464 4.24211 35.8464 2.69536 34.301C1.14972 32.7545 1.14972 30.2484 2.69536 28.7019C4.24211 27.1554 6.74985 27.1554 8.2966 28.7019Z" fill="#009F3C"/>
<path d="M34.309 34.301C32.7634 35.8464 30.2556 35.8464 28.7089 34.301C27.1621 32.7545 27.1621 30.2484 28.7089 28.7019C30.2556 27.1554 32.7634 27.1554 34.309 28.7019C35.8558 30.2484 35.8558 32.7545 34.309 34.301Z" fill="#2B3078"/>
<path d="M8.2966 8.29508C6.74985 9.84044 4.24211 9.84044 2.69536 8.29508C1.14972 6.7486 1.14972 4.2402 2.69536 2.69484C4.24211 1.14836 6.74985 1.14836 8.2966 2.69484C9.84223 4.2402 9.84223 6.7486 8.2966 8.29508Z" fill="#2B3078"/>
<path d="M16.8135 21.8354V23.2285H20.1859V20.1837L23.0857 22.9855C23.3298 23.2184 23.3097 23.3483 23.313 23.5644V24.5219C23.313 24.5353 23.3119 24.5499 23.3119 24.5644V24.5767C23.3108 24.5868 23.3108 24.598 23.3108 24.6092L23.3097 24.6204C23.3085 24.6339 23.3085 24.6484 23.3074 24.6619L23.3063 24.6652C23.3063 24.6786 23.3052 24.691 23.3029 24.7033L23.3018 24.7167C23.3007 24.7268 23.2996 24.7369 23.2985 24.7481L23.2973 24.757C23.2951 24.7716 23.294 24.785 23.2917 24.7973L23.2906 24.8074C23.2884 24.8186 23.2861 24.8287 23.285 24.8399L23.2828 24.8511C23.2805 24.8623 23.2783 24.8724 23.2772 24.8836L23.2749 24.8937C23.2716 24.906 23.2693 24.9194 23.266 24.9317L23.2637 24.9418C23.2615 24.9519 23.2593 24.9631 23.2559 24.9732L23.2525 24.9844C23.2503 24.9956 23.2469 25.0079 23.2436 25.0202L23.2425 25.0236C23.2391 25.037 23.2357 25.0493 23.2313 25.0616L23.2279 25.0739C23.2245 25.0829 23.2212 25.093 23.2189 25.1019L23.2145 25.1131C23.21 25.1255 23.2055 25.1367 23.2021 25.1479L23.1988 25.1568C23.1954 25.1658 23.1909 25.1781 23.1865 25.1882L23.182 25.2005C23.1786 25.2106 23.1753 25.2184 23.1708 25.2274L23.1674 25.2386C23.1618 25.2498 23.1562 25.2621 23.1506 25.2733L23.1484 25.2822C23.1428 25.2912 23.1394 25.3013 23.1349 25.3102L23.1282 25.3225C23.1237 25.3304 23.1193 25.3393 23.1159 25.3483L23.1103 25.3584C23.1047 25.3696 23.0991 25.3808 23.0924 25.392L23.0868 25.4032C23.0823 25.411 23.0778 25.4189 23.0733 25.4267L23.0655 25.4401C23.061 25.448 23.0565 25.4547 23.0521 25.4625L23.0453 25.4748C23.0397 25.4838 23.033 25.495 23.0263 25.5051L23.0173 25.5185C23.0129 25.5252 23.0095 25.5308 23.005 25.5376L22.9949 25.5521C22.9905 25.5588 22.986 25.5655 22.9804 25.5723L22.9703 25.5879C22.9636 25.5969 22.958 25.6047 22.9513 25.6126L22.9412 25.6271C22.9378 25.6316 22.9322 25.6383 22.9289 25.6439L22.9177 25.6574C22.9121 25.6641 22.9053 25.6719 22.8997 25.6798C22.8953 25.6843 22.8908 25.691 22.8863 25.6966C22.8807 25.7022 22.8762 25.7078 22.8706 25.7156L22.8594 25.729C22.8538 25.7335 22.8493 25.7391 22.8437 25.7436C22.8404 25.7492 22.8359 25.7537 22.8325 25.7582C22.8258 25.7649 22.8191 25.7716 22.8124 25.7794C22.8068 25.785 22.8012 25.7906 22.7956 25.7962C22.7922 25.8007 22.7877 25.8063 22.7821 25.8097L22.7687 25.8242L22.7541 25.8388C22.7497 25.8421 22.7452 25.8466 22.7407 25.8511H22.7396C22.7317 25.8589 22.7239 25.8668 22.7161 25.8735C22.7116 25.878 22.706 25.8836 22.7015 25.8869C22.6959 25.8914 22.6914 25.8959 22.6869 25.9004L22.6724 25.9127L22.6578 25.9261C22.6489 25.934 22.6388 25.9407 22.6298 25.9485L22.6164 25.9586C22.6108 25.9631 22.6063 25.9676 22.6007 25.972L22.5861 25.9832C22.5805 25.9866 22.5749 25.99 22.5693 25.9944C22.5649 25.9978 22.5604 26.0012 22.5559 26.0045C22.5447 26.0124 22.5346 26.0202 22.5223 26.028L22.5111 26.0359C22.5055 26.0404 22.4988 26.0448 22.492 26.0482L22.4797 26.0572C22.473 26.0605 22.4663 26.065 22.4607 26.0695L22.4472 26.0773C22.4372 26.084 22.426 26.0907 22.4148 26.0963L22.4002 26.1064C22.3935 26.1109 22.3868 26.1131 22.3812 26.1176L22.3666 26.1255C22.3599 26.1288 22.3532 26.1322 22.3476 26.1355L22.3397 26.14C22.3252 26.1467 22.3128 26.1546 22.2983 26.1602L22.2837 26.1691L22.2647 26.1781C22.2591 26.1803 22.2535 26.1826 22.2479 26.1859C22.0138 26.2934 21.754 26.3528 21.4795 26.3528H16.8135V27.7458L13.8309 24.7906L16.8135 21.8354ZM20.1859 16.8119H23.2313V20.1837H21.838L24.7937 23.1669L27.7494 20.1837H26.3561V15.5185C26.3561 15.2441 26.2968 14.9843 26.1881 14.7503C26.1859 14.7447 26.1825 14.7391 26.1803 14.7335L26.1713 14.7144L26.1635 14.6999C26.1568 14.6864 26.15 14.673 26.1433 14.6596L26.1388 14.6517C26.1355 14.645 26.1321 14.6383 26.1276 14.6316L26.1198 14.617C26.1164 14.6114 26.1131 14.6047 26.1097 14.6002L26.1008 14.5834C26.094 14.5722 26.0873 14.561 26.0806 14.5509L26.0728 14.5386C26.0683 14.5308 26.0638 14.5252 26.0593 14.5185L26.0515 14.5062C26.047 14.4994 26.0436 14.4927 26.0392 14.4871L26.0313 14.4759C26.0235 14.4636 26.0156 14.4535 26.0078 14.4423C26.0044 14.439 26.0011 14.4334 25.9977 14.43C25.9944 14.4244 25.9899 14.4188 25.9854 14.4132L25.9742 14.3975C25.9697 14.3919 25.9664 14.3875 25.9619 14.3819L25.9507 14.3695C25.944 14.3595 25.9361 14.3494 25.9283 14.3415L25.916 14.327L25.9036 14.3124C25.8992 14.3068 25.8947 14.3023 25.8902 14.2979C25.8857 14.2923 25.8812 14.2867 25.8768 14.2833V14.2822C25.8689 14.2744 25.8622 14.2654 25.8544 14.2576C25.8499 14.2542 25.8454 14.2486 25.8409 14.2441L25.8275 14.2307L25.8129 14.2161C25.8084 14.2105 25.804 14.2072 25.7984 14.2027C25.7928 14.1971 25.7883 14.1915 25.7827 14.187C25.776 14.1803 25.7681 14.1724 25.7614 14.1657C25.7558 14.1624 25.7513 14.1579 25.748 14.1545C25.7412 14.1489 25.7368 14.1445 25.7312 14.14L25.7177 14.1288C25.711 14.1232 25.7054 14.1176 25.6987 14.1131C25.6931 14.1075 25.6886 14.103 25.683 14.0985C25.6752 14.0918 25.6673 14.0873 25.6606 14.0806L25.6472 14.0705C25.6416 14.0649 25.6348 14.0605 25.6292 14.0571L25.6158 14.0459C25.608 14.0403 25.599 14.0336 25.5912 14.0291L25.5755 14.0179C25.5688 14.0134 25.562 14.0078 25.5553 14.0034L25.5396 13.9944C25.534 13.9899 25.5284 13.9854 25.5217 13.9821L25.5072 13.972C25.4971 13.9664 25.487 13.9586 25.4769 13.953L25.4657 13.9462C25.4579 13.9418 25.4512 13.9384 25.4433 13.9328L25.4299 13.925C25.422 13.9216 25.4142 13.916 25.4064 13.9126L25.394 13.9059C25.384 13.9003 25.3728 13.8936 25.3616 13.8891L25.3515 13.8835C25.3425 13.8779 25.3335 13.8735 25.3246 13.8701L25.3134 13.8645C25.3033 13.86 25.2943 13.8555 25.2854 13.8511L25.2775 13.8477C25.2652 13.8421 25.2529 13.8376 25.2417 13.832L25.2305 13.8264C25.2215 13.8231 25.2126 13.8208 25.2036 13.8163L25.1913 13.8107C25.1812 13.8074 25.17 13.8029 25.1599 13.7984L25.151 13.7962C25.1398 13.7917 25.1286 13.7883 25.1163 13.7839L25.1039 13.7794C25.095 13.7771 25.086 13.7738 25.0771 13.7716L25.0659 13.7682C25.0524 13.7637 25.039 13.7592 25.0267 13.7559H25.0233C25.011 13.7514 24.9987 13.748 24.9875 13.7458L24.9763 13.7424C24.9651 13.7391 24.955 13.738 24.9438 13.7346L24.9359 13.7324C24.9225 13.7301 24.9091 13.7268 24.8956 13.7245L24.8867 13.7223C24.8755 13.72 24.8654 13.7178 24.8553 13.7156L24.8419 13.7133C24.8318 13.7122 24.8217 13.71 24.8105 13.7077L24.8015 13.7066C24.787 13.7044 24.7735 13.7021 24.7601 13.701L24.7511 13.6999C24.7411 13.6988 24.7287 13.6976 24.7187 13.6976L24.7063 13.6954C24.694 13.6943 24.6817 13.6932 24.6683 13.692H24.6649C24.6503 13.6909 24.6358 13.6898 24.6223 13.6887L24.6111 13.6876C24.6011 13.6876 24.5899 13.6864 24.5798 13.6864H24.5663C24.5529 13.6864 24.5383 13.6864 24.5249 13.6864H23.5673C23.35 13.6887 23.2212 13.6685 22.9882 13.9126L20.1859 16.8119ZM16.8135 20.1837H13.7693V16.8119H15.1615L12.2057 13.8298L9.25 16.8119H10.6433V21.4771C10.6433 21.7525 10.7038 22.0123 10.8113 22.2464C10.8136 22.2509 10.8169 22.2565 10.8192 22.2621L10.8281 22.2822L10.836 22.2968C10.8427 22.3091 10.8494 22.3237 10.8561 22.3371L10.8606 22.3438C10.864 22.3517 10.8684 22.3584 10.8718 22.364L10.8796 22.3785C10.883 22.3852 10.8864 22.3908 10.8908 22.3976L10.8998 22.4132C10.9054 22.4244 10.9121 22.4356 10.92 22.4457L10.9278 22.458C10.9312 22.4636 10.9356 22.4704 10.9401 22.4771L10.948 22.4905C10.9524 22.4961 10.9569 22.5028 10.9614 22.5084L10.9692 22.5207C10.976 22.5319 10.9838 22.542 10.9916 22.5532C10.995 22.5577 10.9984 22.5622 11.0017 22.5667C11.0062 22.5723 11.0096 22.5779 11.014 22.5835L11.0252 22.598C11.0297 22.6025 11.0331 22.6081 11.0376 22.6137L11.0488 22.6271C11.0555 22.6361 11.0633 22.6462 11.0723 22.6562L11.0835 22.6697L11.0969 22.6842C11.1014 22.6898 11.1048 22.6932 11.1092 22.6999C11.1137 22.7033 11.1182 22.7089 11.1227 22.7134C11.1294 22.7223 11.1372 22.7302 11.1451 22.738C11.1496 22.7425 11.154 22.7469 11.1585 22.7514L11.172 22.7649L11.1865 22.7794C11.191 22.785 11.1966 22.7895 11.2011 22.794C11.2067 22.7996 11.2112 22.8052 11.2179 22.8097C11.2246 22.8164 11.2313 22.8231 11.2392 22.8298C11.2436 22.8332 11.2481 22.8377 11.2526 22.8421C11.2582 22.8466 11.2627 22.8522 11.2683 22.8567L11.2817 22.8679C11.2873 22.8724 11.294 22.878 11.3008 22.8824C11.3064 22.888 11.312 22.8925 11.3176 22.897C11.3243 22.9026 11.3321 22.9093 11.34 22.9149L11.3534 22.9261C11.359 22.9295 11.3646 22.9351 11.3702 22.9396L11.3836 22.9496C11.3926 22.9552 11.4004 22.962 11.4083 22.9676L11.424 22.9776C11.4307 22.9832 11.4385 22.9877 11.4441 22.9922L11.4598 23.0023C11.4654 23.0067 11.4721 23.0101 11.4777 23.0146L11.4923 23.0235C11.5024 23.0303 11.5124 23.037 11.5225 23.0426L11.5337 23.0493C11.5416 23.0538 11.5494 23.0583 11.5561 23.0627L11.5696 23.0706C11.5774 23.0751 11.5864 23.0795 11.5931 23.084L11.6054 23.0896C11.6155 23.0952 11.6267 23.1019 11.6379 23.1064L11.6491 23.1131C11.6569 23.1176 11.6659 23.1221 11.6749 23.1266L11.6861 23.1322C11.6961 23.1366 11.7051 23.14 11.7152 23.1445L11.723 23.1478C11.7353 23.1546 11.7465 23.159 11.7589 23.1646L11.7701 23.1691C11.7779 23.1725 11.7869 23.1758 11.7958 23.1792L11.8081 23.1848C11.8193 23.1893 11.8294 23.1926 11.8406 23.1971L11.8485 23.1994C11.8608 23.2038 11.8709 23.2083 11.8832 23.2117L11.8955 23.2162C11.9045 23.2184 11.9134 23.2218 11.9224 23.2251L11.9347 23.2285C11.947 23.233 11.9605 23.2363 11.9728 23.2408H11.9773C11.9885 23.2442 12.0008 23.2475 12.012 23.2509L12.0232 23.2542C12.0344 23.2565 12.0445 23.2587 12.0557 23.2609L12.0646 23.2632C12.0781 23.2665 12.0904 23.2699 12.1038 23.2721L12.1139 23.2733C12.124 23.2766 12.1341 23.2777 12.1453 23.28L12.1576 23.2822C12.1688 23.2845 12.1777 23.2856 12.1889 23.2878L12.199 23.2889C12.2113 23.2912 12.2259 23.2923 12.2393 23.2945L12.2483 23.2957C12.2595 23.2968 12.2707 23.2979 12.2808 23.3001L12.2931 23.3013C12.3054 23.3013 12.3177 23.3035 12.3312 23.3046H12.3345C12.3491 23.3057 12.3637 23.3069 12.3771 23.3069H12.3883C12.3995 23.3091 12.4096 23.3091 12.4208 23.3091H12.4331H12.4757H13.4333C13.6495 23.3069 13.7783 23.3281 14.0123 23.084L16.8135 20.1837ZM16.8135 16.8108L13.9138 14.0112C13.6696 13.7772 13.6898 13.6484 13.6875 13.4311V12.4737C13.6875 12.4602 13.6875 12.4468 13.6875 12.4322V12.4199C13.6887 12.4087 13.6887 12.3986 13.6898 12.3886V12.3774C13.6909 12.3628 13.692 12.3471 13.692 12.3348L13.6931 12.3303C13.6943 12.3169 13.6954 12.3057 13.6965 12.2923L13.6976 12.2811C13.6987 12.2699 13.6999 12.2587 13.701 12.2486L13.7032 12.2385C13.7043 12.2251 13.7055 12.2116 13.7077 12.1982L13.7088 12.1881C13.7111 12.178 13.7133 12.1668 13.7155 12.1568L13.7167 12.1433C13.7189 12.1332 13.7211 12.1232 13.7234 12.112L13.7256 12.103C13.7279 12.0907 13.7301 12.0761 13.7335 12.0638L13.7357 12.0549C13.7379 12.0437 13.7413 12.0325 13.7435 12.0224L13.7458 12.0112C13.7491 12 13.7525 11.9877 13.7559 11.9765L13.757 11.9731C13.7603 11.9597 13.7648 11.9462 13.7693 11.9339L13.7715 11.9216C13.7749 11.9126 13.7783 11.9037 13.7805 11.8947L13.785 11.8824C13.7895 11.8701 13.7928 11.8589 13.7973 11.8488L13.8007 11.8399C13.804 11.8287 13.8085 11.8186 13.813 11.8085L13.8175 11.7951C13.8208 11.7861 13.8242 11.7771 13.8287 11.7682L13.8331 11.7581C13.8387 11.7469 13.8432 11.7346 13.8488 11.7212L13.8522 11.7144C13.8567 11.7044 13.8611 11.6954 13.8656 11.6853L13.8712 11.6741C13.8757 11.6652 13.8802 11.6573 13.8835 11.6484L13.8891 11.6372C13.8947 11.626 13.9015 11.6148 13.9071 11.6036L13.9138 11.5935C13.9171 11.5845 13.9216 11.5767 13.9261 11.5689L13.9339 11.5554C13.9384 11.5487 13.9429 11.5397 13.9474 11.5341L13.9541 11.5218C13.9608 11.5117 13.9664 11.5017 13.9731 11.4916L13.9821 11.4781C13.9866 11.4714 13.9911 11.4647 13.9955 11.458L14.0045 11.4434C14.009 11.4378 14.0146 11.4311 14.0191 11.4233L14.0303 11.4076C14.0359 11.3986 14.0415 11.3908 14.0482 11.3841L14.0583 11.3695C14.0627 11.3639 14.0672 11.3583 14.0717 11.3527L14.0818 11.3393C14.0874 11.3315 14.0941 11.3247 14.0997 11.3169C14.1042 11.3113 14.1087 11.3057 14.1131 11.3001C14.1187 11.2934 14.1243 11.2878 14.1299 11.2811L14.14 11.2676C14.1456 11.2631 14.1501 11.2564 14.1557 11.2519C14.1591 11.2475 14.1635 11.2419 14.1669 11.2385C14.1747 11.2307 14.1803 11.2239 14.1871 11.2172C14.1927 11.2105 14.1983 11.206 14.2027 11.2004C14.2083 11.1948 14.2128 11.1904 14.2173 11.1859L14.2319 11.1713L14.2453 11.159C14.2509 11.1534 14.2543 11.1489 14.2599 11.1444C14.2677 11.1377 14.2755 11.1299 14.2834 11.1232V11.122C14.289 11.1176 14.2935 11.1131 14.298 11.1086C14.3036 11.1041 14.308 11.0996 14.3125 11.0963L14.3271 11.084L14.3416 11.0717C14.3517 11.0638 14.3607 11.056 14.3708 11.047L14.3831 11.0369C14.3887 11.0325 14.3943 11.0291 14.3988 11.0257L14.4144 11.0134C14.42 11.0101 14.4245 11.0045 14.4301 11.0011C14.4346 10.9977 14.4391 10.9944 14.4436 10.9921C14.4548 10.9832 14.466 10.9765 14.4772 10.9686L14.4884 10.9608C14.494 10.9563 14.5007 10.9518 14.5074 10.9474L14.5197 10.9395C14.5264 10.935 14.5332 10.9306 14.5388 10.9261L14.5522 10.9194C14.5634 10.9126 14.5735 10.9048 14.5847 10.8981L14.5992 10.8902C14.606 10.8869 14.6127 10.8824 14.6183 10.879L14.6328 10.8701C14.6396 10.8667 14.6463 10.8634 14.653 10.86L14.6608 10.8555C14.6743 10.8488 14.6866 10.8421 14.7012 10.8342L14.7157 10.8286L14.7348 10.8186C14.7404 10.8152 14.746 10.813 14.7516 10.8107C14.9856 10.7021 15.2455 10.6416 15.5199 10.6416H20.1859V9.2497L23.1697 12.2049L20.1859 15.1601V13.7682H16.8135V16.8108Z" fill="#009F3C"/>
<path d="M16.8258 23.1958V20.1723H13.8018V16.8229H16.8258V13.8005H20.1758V16.8229H23.1988V20.1723H20.1758V23.1958H16.8258Z" fill="white"/>
</svg>
