<svg width="32" height="32" viewBox="0 0 32 32" fill="none" xmlns="http://www.w3.org/2000/svg">
<path d="M23.6193 14.3689C24.2952 14.3689 24.8431 13.8095 24.8431 13.1194C24.8431 12.4294 24.2952 11.87 23.6193 11.87C22.9434 11.87 22.3955 12.4294 22.3955 13.1194C22.3955 13.8095 22.9434 14.3689 23.6193 14.3689Z" fill="#0897A5"/>
<path d="M26.4338 2.49894H24.8429V1.24947C24.8429 0.559389 24.295 0 23.6191 0C22.9432 0 22.3953 0.559389 22.3953 1.24947V2.49894H16.8271V1.24947C16.8271 0.559389 16.2792 0 15.6033 0C14.9274 0 14.3795 0.559389 14.3795 1.24947V2.49894H8.87247V1.24947C8.87247 0.559389 8.32458 0 7.64868 0C6.97278 0 6.42489 0.559389 6.42489 1.24947V2.49894H4.89515C2.19597 2.49894 0 4.741 0 7.49683V26.9886C0 29.7444 2.19597 31.9865 4.89515 31.9865H14.2571C14.933 31.9865 15.4809 31.4271 15.4809 30.737C15.4809 30.0469 14.933 29.4875 14.2571 29.4875H4.89515C3.54556 29.4875 2.44758 28.3665 2.44758 26.9886V7.49683C2.44758 6.11891 3.54556 4.99789 4.89515 4.99789H6.42489V6.24736C6.42489 6.93744 6.97278 7.49683 7.64868 7.49683C8.32458 7.49683 8.87247 6.93744 8.87247 6.24736V4.99789H14.3795V6.24736C14.3795 6.93744 14.9274 7.49683 15.6033 7.49683C16.2792 7.49683 16.8271 6.93744 16.8271 6.24736V4.99789H22.3953V6.24736C22.3953 6.93744 22.9432 7.49683 23.6191 7.49683C24.295 7.49683 24.8429 6.93744 24.8429 6.24736V4.99789H26.4338C27.7834 4.99789 28.8814 6.11891 28.8814 7.49683V14.6188C28.8814 15.3089 29.4293 15.8683 30.1052 15.8683C30.7811 15.8683 31.329 15.3089 31.329 14.6188V7.49683C31.329 4.741 29.133 2.49894 26.4338 2.49894Z" fill="#0897A5"/>
<path d="M23.9252 16.868C19.8426 16.868 16.5212 20.259 16.5212 24.4273C16.5212 28.5955 19.8426 31.9866 23.9252 31.9866C28.0077 31.9866 31.3291 28.5955 31.3291 24.4273C31.3291 20.259 28.0077 16.868 23.9252 16.868ZM23.9252 29.4876C21.1923 29.4876 18.9688 27.2176 18.9688 24.4273C18.9688 21.637 21.1923 19.3669 23.9252 19.3669C26.6581 19.3669 28.8815 21.637 28.8815 24.4273C28.8815 27.2176 26.6581 29.4876 23.9252 29.4876Z" fill="#0897A5"/>
<path d="M25.6997 23.1778H25.149V21.8659C25.149 21.1758 24.6011 20.6164 23.9252 20.6164C23.2493 20.6164 22.7014 21.1758 22.7014 21.8659V24.4273C22.7014 25.1174 23.2493 25.6768 23.9252 25.6768H25.6997C26.3756 25.6768 26.9235 25.1174 26.9235 24.4273C26.9235 23.7372 26.3756 23.1778 25.6997 23.1778Z" fill="#0897A5"/>
<path d="M18.2956 14.3689C18.9714 14.3689 19.5194 13.8095 19.5194 13.1194C19.5194 12.4294 18.9714 11.87 18.2956 11.87C17.6197 11.87 17.0718 12.4294 17.0718 13.1194C17.0718 13.8095 17.6197 14.3689 18.2956 14.3689Z" fill="#0897A5"/>
<path d="M12.9723 19.8041C13.6482 19.8041 14.1961 19.2447 14.1961 18.5546C14.1961 17.8646 13.6482 17.3052 12.9723 17.3052C12.2964 17.3052 11.7485 17.8646 11.7485 18.5546C11.7485 19.2447 12.2964 19.8041 12.9723 19.8041Z" fill="#0897A5"/>
<path d="M7.64884 14.3689C8.32472 14.3689 8.87263 13.8095 8.87263 13.1194C8.87263 12.4294 8.32472 11.87 7.64884 11.87C6.97296 11.87 6.42505 12.4294 6.42505 13.1194C6.42505 13.8095 6.97296 14.3689 7.64884 14.3689Z" fill="#0897A5"/>
<path d="M7.64884 19.8041C8.32472 19.8041 8.87263 19.2447 8.87263 18.5546C8.87263 17.8646 8.32472 17.3052 7.64884 17.3052C6.97296 17.3052 6.42505 17.8646 6.42505 18.5546C6.42505 19.2447 6.97296 19.8041 7.64884 19.8041Z" fill="#0897A5"/>
<path d="M7.64884 25.2393C8.32472 25.2393 8.87263 24.6799 8.87263 23.9899C8.87263 23.2998 8.32472 22.7404 7.64884 22.7404C6.97296 22.7404 6.42505 23.2998 6.42505 23.9899C6.42505 24.6799 6.97296 25.2393 7.64884 25.2393Z" fill="#0897A5"/>
<path d="M12.9723 25.2393C13.6482 25.2393 14.1961 24.6799 14.1961 23.9899C14.1961 23.2998 13.6482 22.7404 12.9723 22.7404C12.2964 22.7404 11.7485 23.2998 11.7485 23.9899C11.7485 24.6799 12.2964 25.2393 12.9723 25.2393Z" fill="#0897A5"/>
<path d="M12.9723 14.3689C13.6482 14.3689 14.1961 13.8095 14.1961 13.1194C14.1961 12.4294 13.6482 11.87 12.9723 11.87C12.2964 11.87 11.7485 12.4294 11.7485 13.1194C11.7485 13.8095 12.2964 14.3689 12.9723 14.3689Z" fill="#0897A5"/>
</svg>
