<svg width="35" height="42" viewBox="0 0 35 42" fill="none" xmlns="http://www.w3.org/2000/svg">
<path d="M17.4389 4.57453C17.8191 4.57453 18.1274 4.25749 18.1274 3.86641V0.708117C18.1274 0.317039 17.8191 0 17.4389 0C17.0587 0 16.7505 0.317039 16.7505 0.708117V3.86641C16.7506 4.25749 17.0588 4.57453 17.4389 4.57453Z" fill="#0897A5"/>
<path d="M34.2671 24.327L33.0509 23.0796C32.6183 22.6352 32.0417 22.3903 31.4273 22.3903C31.0344 22.3903 30.6573 22.4909 30.323 22.6793L28.0312 20.3248L28.1429 20.2101C29.0726 19.2519 29.0723 17.6948 28.1428 16.7398C27.8106 16.3975 27.3962 16.1693 26.9444 16.0733C27.0066 15.8524 27.0393 15.6211 27.0393 15.3843C27.0393 14.7266 26.7909 14.1098 26.3412 13.6492C26.009 13.3069 25.5946 13.0786 25.1428 12.9826C25.205 12.7617 25.2378 12.5305 25.2378 12.2937C25.2378 11.6358 24.9894 11.0191 24.539 10.5578C24.1988 10.2083 23.7806 9.98715 23.3416 9.893C23.5765 9.06 23.3757 8.12281 22.7386 7.46637C22.2083 6.92321 21.4887 6.68977 20.7952 6.76543L16.2537 5.88125C15.5611 5.74611 14.6962 5.65674 14.1502 6.16897C14.1157 6.20131 14.0806 6.2385 14.046 6.27992C13.1994 5.96253 12.212 6.15153 11.5341 6.84804C11.0844 7.31007 10.8367 7.92657 10.8367 8.58399C10.8367 8.8208 10.8693 9.05206 10.9314 9.27298C10.4801 9.36896 10.0662 9.59691 9.73512 9.93807C9.28449 10.3997 9.03601 11.0155 9.03553 11.6721C9.03532 11.9095 9.06806 12.1415 9.13055 12.363C8.67903 12.4588 8.26484 12.6863 7.93275 13.0275C7.48213 13.4905 7.23398 14.1073 7.23398 14.7644C7.23398 15.2677 7.38007 15.7471 7.65077 16.1521C7.30897 16.2713 6.99589 16.4697 6.73373 16.739C5.80336 17.6948 5.80302 19.2519 6.73434 20.2116L6.84557 20.3255L4.55348 22.6788C3.70165 22.2662 2.65213 22.4208 1.94919 23.1429L0.732256 24.3911C0.299404 24.8357 0.0611035 25.4289 0.0610352 26.0612C0.0610352 26.6936 0.299404 27.2868 0.732256 27.7316L2.251 29.2918C2.51999 29.5682 2.95592 29.5679 3.22457 29.2912C3.49329 29.0146 3.49302 28.5662 3.22402 28.2898L1.70528 26.7296C1.53288 26.5525 1.43793 26.3151 1.43793 26.0613C1.43793 25.8075 1.53288 25.5702 1.70487 25.3935L2.92187 24.1453C3.22594 23.8329 3.69133 23.7863 4.04475 24.0037C4.06963 24.0421 4.09841 24.0787 4.13136 24.1126C4.19035 24.1735 4.25769 24.2201 4.32919 24.2542L11.3082 31.4221C11.3414 31.4964 11.3869 31.5663 11.4463 31.6275C11.5041 31.6871 11.5701 31.7331 11.6401 31.767C11.7877 31.9386 11.8692 32.1579 11.8692 32.3917C11.8692 32.6456 11.7743 32.8829 11.6019 33.06L10.3861 34.309C10.0269 34.6769 9.44254 34.6768 9.0844 34.3101L7.56566 32.7479C7.29681 32.4713 6.86095 32.4713 6.59209 32.7479C6.32323 33.0244 6.32323 33.4727 6.59209 33.7493L8.11192 35.3127C8.55927 35.7709 9.14675 35.9999 9.7345 35.9999C10.3224 35.9999 10.9106 35.7705 11.3584 35.3119L12.575 34.0621C13.0078 33.6174 13.2462 33.0242 13.2462 32.3917C13.2462 31.9404 13.1242 31.5094 12.8973 31.1377L15.4769 28.4876C15.4796 28.4847 15.4824 28.4819 15.4852 28.479C15.7805 28.1649 16.6031 28.2237 17.3986 28.2805C17.9638 28.3209 18.5939 28.3659 19.2096 28.2929L22.0345 31.195C21.8515 31.5382 21.7538 31.9256 21.7538 32.3291C21.7538 32.9608 21.9922 33.5536 22.425 33.9984L23.6416 35.2482C24.0742 35.6926 24.6508 35.9375 25.2652 35.9375C25.8795 35.9375 26.4562 35.6927 26.8888 35.2482L34.2676 27.6678C34.7004 27.2231 34.9388 26.63 34.9388 25.9976C34.9387 25.3653 34.7004 24.7721 34.2671 24.327ZM15.9974 7.27273L18.9838 7.85415L17.1963 9.69204C16.9198 9.55536 16.5408 9.3004 16.125 8.89133C15.5559 8.33136 15.1488 7.68483 15.1118 7.28159C15.1117 7.28138 15.1117 7.28117 15.1117 7.28096C15.1117 7.28089 15.1116 7.28082 15.1116 7.28075C15.109 7.25178 15.1083 7.22865 15.1086 7.211C15.1987 7.1885 15.4378 7.16354 15.9974 7.27273ZM12.5071 7.85007C12.8559 7.49168 13.3977 7.45034 13.7918 7.72484C14.0151 8.68798 14.8139 9.56091 15.1732 9.91458C15.4396 10.1767 16.2941 10.9626 17.1567 11.1786C17.2734 11.3506 17.3369 11.5557 17.3369 11.7722C17.3369 12.051 17.2326 12.3116 17.0427 12.5068C16.8532 12.702 16.5994 12.8094 16.3279 12.8094C16.0563 12.8094 15.8025 12.702 15.6122 12.5059L15.6121 12.5058L15.6118 12.5055L12.507 9.31777C12.3177 9.12336 12.2135 8.86271 12.2135 8.58399C12.2136 8.3052 12.3178 8.04455 12.5071 7.85007ZM10.7081 10.9401C10.8976 10.745 11.1511 10.6375 11.4222 10.6375C11.6937 10.6375 11.948 10.7452 12.1387 10.9411L14.6387 13.5074C15.0324 13.913 15.0324 14.5729 14.6401 14.9771C14.4497 15.1722 14.1949 15.2796 13.9229 15.2796C13.6509 15.2796 13.3962 15.1722 13.2066 14.9779L13.2065 14.9779L11.3099 13.0275C11.307 13.0244 11.3038 13.0216 11.3008 13.0185L10.7074 12.4085C10.517 12.2129 10.4122 11.9517 10.4124 11.6732C10.4127 11.3955 10.5171 11.1357 10.7081 10.9401ZM8.90578 14.0295C9.09534 13.8348 9.34943 13.7276 9.62137 13.7276C9.89104 13.7276 10.1429 13.8332 10.3317 14.0246L12.2341 15.9804C12.4238 16.1748 12.5283 16.4352 12.5283 16.7136C12.5283 16.992 12.4238 17.2523 12.2334 17.4474C12.0439 17.6421 11.7901 17.7493 11.5186 17.7493C11.2467 17.7493 10.9921 17.6418 10.8023 17.4474L10.1127 16.7389C10.1125 16.7387 10.1123 16.7386 10.1122 16.7384L8.90585 15.4991C8.71567 15.3037 8.61095 15.0427 8.61095 14.7642C8.61095 14.4859 8.71567 14.2248 8.90578 14.0295ZM7.70676 17.741C7.89714 17.5454 8.15157 17.4377 8.42316 17.4377C8.69469 17.4377 8.94905 17.5453 9.13937 17.7408L9.83 18.4503C10.0198 18.6447 10.1242 18.905 10.1242 19.1835C10.1242 19.4619 10.0197 19.7222 9.82856 19.9181C9.63914 20.1132 9.38532 20.2207 9.1138 20.2207C8.84221 20.2207 8.58839 20.1133 8.3976 19.9167L8.31112 19.8281C8.30996 19.8269 8.30907 19.8256 8.30798 19.8245C8.30668 19.8232 8.30531 19.8221 8.30401 19.8208L7.70744 19.2096C7.31376 18.8038 7.31342 18.1451 7.70676 17.741ZM21.7364 25.7888C21.4677 25.5121 21.0318 25.5119 20.7628 25.7882L20.1503 26.4174C19.5683 27.0161 18.5138 26.9407 17.4939 26.8679C16.3864 26.7887 15.2412 26.707 14.5001 27.4896L11.9643 30.0947L5.6231 23.5819L7.8672 21.2778C8.23811 21.5116 8.66611 21.637 9.11393 21.637C9.75371 21.637 10.3536 21.3819 10.8017 20.9202C11.2528 20.4581 11.5013 19.8414 11.5013 19.1835C11.5013 19.1774 11.5009 19.1714 11.5009 19.1652C11.5069 19.1653 11.5128 19.1657 11.5187 19.1657C12.1576 19.1657 12.7571 18.9114 13.2058 18.4504C13.6569 17.9883 13.9054 17.3715 13.9054 16.7137C13.9054 16.7076 13.905 16.7016 13.905 16.6955C13.911 16.6955 13.917 16.6959 13.9231 16.6959C14.5618 16.6959 15.1616 16.4418 15.6133 15.9791C16.0822 15.496 16.3142 14.8599 16.3097 14.2252C16.3159 14.2253 16.322 14.2257 16.3282 14.2257C16.9679 14.2256 17.5678 13.9706 18.0166 13.5081C18.4663 13.0461 18.714 12.4296 18.714 11.7722C18.714 11.3124 18.5925 10.8729 18.3659 10.4921L20.3328 8.46987C20.4794 8.31975 20.6601 8.22554 20.8495 8.18665C20.87 8.1844 20.8903 8.18103 20.9103 8.17695C21.2142 8.13385 21.5334 8.23032 21.7658 8.4684C22.1595 8.87403 22.1595 9.53398 21.7673 9.93814L21.1682 10.5518C21.1662 10.5538 21.1641 10.5556 21.1621 10.5577L20.4722 11.2661C20.2031 11.5425 20.2028 11.9908 20.4716 12.2675C20.7404 12.5443 21.1762 12.5445 21.4451 12.2682L22.0466 11.6504C22.0467 11.6502 22.0468 11.6501 22.047 11.65L22.1379 11.5568C22.5327 11.1545 23.1722 11.1553 23.5666 11.5604C23.7564 11.7547 23.8609 12.0151 23.8609 12.2935C23.8609 12.5719 23.7564 12.8323 23.5651 13.0282L22.9627 13.6491C22.9626 13.6492 22.9625 13.6492 22.9624 13.6494L22.2726 14.3561C22.0032 14.6321 22.0023 15.0804 22.2706 15.3575C22.5389 15.6346 22.9748 15.6354 23.2442 15.3595L23.9372 14.6496C24.1266 14.4544 24.3804 14.3469 24.6519 14.3469C24.9235 14.3469 25.1774 14.4544 25.3682 14.651C25.558 14.8454 25.6624 15.1058 25.6624 15.3842C25.6624 15.6626 25.558 15.9229 25.3671 16.1184L24.166 17.3543C23.8973 17.6309 23.8973 18.0792 24.1662 18.3557C24.3007 18.4939 24.4767 18.563 24.6529 18.563C24.8291 18.563 25.0054 18.4938 25.1398 18.3555L25.7284 17.7498C25.7318 17.7465 25.7354 17.7436 25.7387 17.7402C25.9282 17.545 26.182 17.4375 26.4535 17.4375C26.7251 17.4375 26.9789 17.545 27.169 17.7409C27.5623 18.1449 27.5619 18.8038 27.169 19.2086L26.5705 19.8235C26.5703 19.8237 26.57 19.8239 26.5698 19.8241C26.5696 19.8244 26.5694 19.8246 26.5692 19.8249L25.6193 20.8007C25.3503 21.0771 25.35 21.5255 25.6187 21.8022C25.7532 21.9406 25.9295 22.0099 26.1058 22.0099C26.2818 22.0099 26.4579 21.9408 26.5923 21.8028L27.057 21.3255L29.2839 23.6134L22.9432 30.1272L20.6714 27.7933C20.8298 27.6885 20.9813 27.5653 21.1236 27.419L21.7357 26.7901C22.0049 26.5139 22.0051 26.0655 21.7364 25.7888ZM33.2945 26.6658L25.9157 34.2462C25.7431 34.4235 25.512 34.5211 25.2651 34.5211C25.0182 34.5211 24.7872 34.4235 24.6145 34.2461L23.3979 32.9963C23.2255 32.8192 23.1305 32.5823 23.1305 32.3291C23.1305 32.076 23.2255 31.839 23.3979 31.6619L30.7767 24.0815C30.9494 23.9041 31.1803 23.8064 31.4273 23.8064C31.6742 23.8064 31.9053 23.9041 32.0784 24.0819L33.2946 25.3293C33.467 25.5065 33.5619 25.7437 33.5619 25.9975C33.5618 26.2514 33.4669 26.4887 33.2945 26.6658Z" fill="#0897A5"/>
<path d="M8.2972 3.97757C8.43159 4.11553 8.60755 4.18443 8.78351 4.18443C8.95988 4.18443 9.13631 4.1151 9.27077 3.97652C9.53936 3.6997 9.53895 3.25138 9.26982 2.97513L6.76116 0.399932C6.4921 0.123674 6.05617 0.124026 5.78759 0.400916C5.51901 0.677737 5.51942 1.12605 5.78855 1.40231L8.2972 3.97757Z" fill="#0897A5"/>
<path d="M26.0942 4.18441C26.2702 4.18441 26.4463 4.11536 26.5807 3.97734L29.0875 1.40207C29.3564 1.12574 29.3567 0.677359 29.088 0.400679C28.8193 0.123999 28.3835 0.123718 28.1144 0.400116L25.6077 2.97538C25.3387 3.25171 25.3384 3.70009 25.6071 3.97677C25.7416 4.11522 25.9179 4.18441 26.0942 4.18441Z" fill="#0897A5"/>
<path d="M4.29418 40.0088C4.02764 40.2876 4.03134 40.736 4.30252 41.0101L4.3045 41.0121C4.43828 41.1474 4.61198 41.2148 4.78561 41.2148C4.96383 41.2148 5.14204 41.1438 5.27705 41.0026C5.54358 40.7237 5.53886 40.2743 5.26775 40.0002C4.99671 39.726 4.56085 39.7299 4.29418 40.0088Z" fill="#0897A5"/>
<path d="M23.4202 24.7688C23.5249 24.7688 23.6311 24.7443 23.7309 24.6926C24.0703 24.5164 24.2067 24.0906 24.0355 23.7415C23.8643 23.3923 23.4503 23.2519 23.1108 23.4281L23.107 23.43C22.7675 23.6062 22.6331 24.031 22.8043 24.3802C22.9251 24.6268 23.1682 24.7688 23.4202 24.7688Z" fill="#0897A5"/>
</svg>
