<svg width="21" height="25" viewBox="0 0 21 25" fill="none" xmlns="http://www.w3.org/2000/svg">
<path d="M3.88889 12.5C3.88889 13.0312 3.45373 13.4615 2.91667 13.4615H0.972222C0.435155 13.4615 0 13.0312 0 12.5C0 11.9688 0.435155 11.5385 0.972222 11.5385H2.91667C3.45379 11.5385 3.88889 11.9688 3.88889 12.5ZM3.88889 6.34615C3.88889 5.81499 3.45373 5.38462 2.91667 5.38462H0.972222C0.435155 5.38462 0 5.81499 0 6.34615C0 6.87732 0.435155 7.30769 0.972222 7.30769H2.91667C3.45379 7.30769 3.88889 6.87732 3.88889 6.34615ZM3.88889 18.6539C3.88889 18.1226 3.45373 17.6924 2.91667 17.6924H0.972222C0.435155 17.6924 0 18.1226 0 18.6539C0 19.1851 0.435155 19.6154 0.972222 19.6154H2.91667C3.45379 19.6154 3.88889 19.185 3.88889 18.6539ZM21 3.07692V21.9231C21 23.6223 19.607 25 17.889 25H4.27789C2.5598 25 1.16678 23.6223 1.16678 21.9231V20.3846H2.91678C3.88163 20.3846 4.66678 19.608 4.66678 18.6538C4.66678 17.6996 3.88163 16.923 2.91678 16.923H1.16667V14.2307H2.91667C3.88151 14.2307 4.66667 13.4541 4.66667 12.4999C4.66667 11.5456 3.88151 10.7691 2.91667 10.7691H1.16667V8.07681H2.91667C3.88151 8.07681 4.66667 7.30028 4.66667 6.34604C4.66667 5.3918 3.88151 4.61527 2.91667 4.61527H1.16667V3.07692C1.16667 1.37771 2.55969 0 4.27778 0H17.8889C19.607 0 21 1.37766 21 3.07692ZM8.66679 9.12076C8.66679 10.7592 10.01 12.0877 11.6667 12.0877C13.3234 12.0877 14.6665 10.7592 14.6665 9.12076C14.6665 7.4823 13.3234 6.15379 11.6667 6.15379C10.0101 6.15385 8.66679 7.4823 8.66679 9.12076ZM16.3333 16.3734C16.3333 14.5531 14.8408 13.0769 13.0002 13.0769H10.3336C8.49259 13.0769 7 14.5531 7 16.3734V17.6923H16.3333V16.3734Z" fill="#0897A5"/>
</svg>
