<svg width="26" height="26" viewBox="0 0 26 26" fill="none" xmlns="http://www.w3.org/2000/svg">
<rect width="26" height="26" rx="7" fill="white"/>
<path d="M14.75 17.6667H8.91667C8.1434 17.6657 7.40208 17.3582 6.85529 16.8114C6.30851 16.2646 6.00093 15.5233 6 14.75V8.91667C6.00093 8.1434 6.30851 7.40208 6.85529 6.85529C7.40208 6.30851 8.1434 6.00093 8.91667 6H14.75C15.5233 6.00093 16.2646 6.30851 16.8114 6.85529C17.3582 7.40208 17.6657 8.1434 17.6667 8.91667V14.75C17.6657 15.5233 17.3582 16.2646 16.8114 16.8114C16.2646 17.3582 15.5233 17.6657 14.75 17.6667ZM20 17.0833V9.5C20 9.34529 19.9385 9.19692 19.8291 9.08752C19.7197 8.97812 19.5714 8.91667 19.4167 8.91667C19.262 8.91667 19.1136 8.97812 19.0042 9.08752C18.8948 9.19692 18.8333 9.34529 18.8333 9.5V17.0833C18.8333 17.5475 18.649 17.9926 18.3208 18.3208C17.9926 18.649 17.5475 18.8333 17.0833 18.8333H9.5C9.34529 18.8333 9.19692 18.8948 9.08752 19.0042C8.97812 19.1136 8.91667 19.262 8.91667 19.4167C8.91667 19.5714 8.97812 19.7197 9.08752 19.8291C9.19692 19.9385 9.34529 20 9.5 20H17.0833C17.8566 19.9991 18.5979 19.6915 19.1447 19.1447C19.6915 18.5979 19.9991 17.8566 20 17.0833Z" fill="#0897A5"/>
</svg>
