<svg width="32" height="34" viewBox="0 0 32 34" fill="none" xmlns="http://www.w3.org/2000/svg">
<path d="M28.6309 12.4589L12.6002 28.3101C11.8757 29.0263 10.7011 29.0263 9.97682 28.3101L0.543246 18.9823C-0.181082 18.2658 -0.181082 17.1045 0.543246 16.3883L16.5739 0.537152C17.2985 -0.179051 18.473 -0.179051 19.1974 0.537152L28.6309 9.86491C29.3555 10.5811 29.3555 11.7427 28.6309 12.4589Z" fill="#8CBAFA"/>
<path d="M28.6313 9.8649L27.4542 8.70071C28.0993 9.33858 28.0348 10.4364 27.3104 11.1526L11.2795 27.0037C10.5551 27.7202 9.4449 27.7837 8.7998 27.1459L9.9772 28.3101C10.7015 29.0263 11.876 29.0263 12.6006 28.3101L28.6313 12.4589C29.3559 11.7427 29.3559 10.5811 28.6313 9.8649Z" fill="#5692D8"/>
<path d="M3.6259 18.3299C3.49683 18.3299 3.36802 18.2812 3.26964 18.1839C3.07288 17.9893 3.07288 17.6742 3.26964 17.4796L11.1218 9.71552C11.3186 9.52097 11.6376 9.52097 11.8341 9.71552C12.0308 9.91007 12.0308 10.2255 11.8341 10.4198L3.9819 18.1842C3.88352 18.2812 3.75471 18.3299 3.6259 18.3299Z" fill="#252D4C"/>
<path d="M6.12102 20.7973C5.99194 20.7973 5.86313 20.7485 5.76476 20.6513C5.568 20.4567 5.568 20.1415 5.76476 19.947L13.6169 12.1829C13.8137 11.9883 14.1327 11.9883 14.3292 12.1829C14.5259 12.3774 14.5259 12.6929 14.3292 12.8872L6.47701 20.6513C6.37864 20.7485 6.24983 20.7973 6.12102 20.7973Z" fill="#252D4C"/>
<path d="M16.3114 4.15008L14.7405 5.70311C14.123 6.31373 14.123 7.3036 14.7405 7.91423C15.3581 8.52486 16.3594 8.52486 16.977 7.91423L18.5476 6.3612C19.1652 5.75058 19.1652 4.76071 18.5476 4.15008C17.9301 3.53945 16.9287 3.53945 16.3114 4.15008Z" fill="#FFCD34"/>
<path d="M30.1443 17.14H7.47319C6.44874 17.14 5.61816 17.9613 5.61816 18.9743V32.1658C5.61816 33.1787 6.44874 34 7.47319 34H30.1443C31.169 34 31.9993 33.1787 31.9993 32.1658V18.9743C31.9996 17.9613 31.169 17.14 30.1443 17.14Z" fill="#FFCD34"/>
<path d="M30.1447 17.14H28.4844C29.5088 17.14 30.3394 17.9613 30.3394 18.9743V32.1658C30.3394 33.1787 29.5088 34 28.4844 34H30.1447C31.1694 34 31.9998 33.1787 31.9998 32.1658V18.9743C32 17.9613 31.1694 17.14 30.1447 17.14Z" fill="#E69012"/>
<path d="M5.61816 21.2842H31.9996V24.4533H5.61816V21.2842Z" fill="#575B7A"/>
<path d="M30.3398 21.2842H32.0002V24.4533H30.3398V21.2842Z" fill="#252D4C"/>
<path d="M25.5166 29.5171V31.4717C25.5166 31.6229 25.6404 31.7453 25.7934 31.7453H28.9375C29.0905 31.7453 29.2143 31.6229 29.2143 31.4717V29.5171C29.2143 29.3658 29.0905 29.2434 28.9375 29.2434H25.7934C25.6404 29.2434 25.5166 29.3658 25.5166 29.5171Z" fill="#E9E9EA"/>
<path d="M16.0352 29.5171V31.4717C16.0352 31.6229 16.1592 31.7453 16.3119 31.7453H22.9623C23.1153 31.7453 23.2391 31.6229 23.2391 31.4717V29.5171C23.2391 29.3658 23.1153 29.2434 22.9623 29.2434H16.3119C16.1592 29.2434 16.0352 29.3658 16.0352 29.5171Z" fill="#E9E9EA"/>
<path d="M13.3256 32.2433H10.0125C9.73414 32.2433 9.50879 32.0203 9.50879 31.7453C9.50879 31.4701 9.73414 31.2473 10.0125 31.2473H13.3256C13.604 31.2473 13.8293 31.4701 13.8293 31.7453C13.8293 32.0203 13.604 32.2433 13.3256 32.2433Z" fill="#252D4C"/>
</svg>
