<svg width="27" height="28" viewBox="0 0 27 28" fill="none" xmlns="http://www.w3.org/2000/svg">
<path d="M26.1001 8.58669L23.5463 6.748L22.5699 3.76132C22.2788 2.86536 21.4433 2.25867 20.495 2.25867H17.3403L14.7771 0.420028C14.0166 -0.140009 12.9839 -0.140009 12.2234 0.420028L9.66022 2.25867H6.50559C5.5573 2.25867 4.72175 2.86535 4.43069 3.76132L3.45421 6.748L0.900479 8.58669C0.130585 9.14667 -0.188654 10.1173 0.111789 11.0133L1.08827 14L0.111789 16.9867C-0.188664 17.8826 0.130585 18.8533 0.900479 19.4133L3.45421 21.252L4.43069 24.2386C4.72175 25.1347 5.5573 25.7413 6.50559 25.7413H9.66023L12.214 27.58C12.5989 27.86 13.0496 28 13.5003 28C13.9509 28 14.4016 27.86 14.7772 27.58L17.3403 25.7413H20.495C21.4433 25.7413 22.2788 25.1347 22.5699 24.2386L23.5464 21.252L26.1001 19.4133C26.87 18.8533 27.1892 17.8827 26.8888 16.9867L25.9123 14L26.8888 11.0133C27.1892 10.1173 26.87 9.14667 26.1001 8.58669ZM9.75414 7.95198C11.0404 7.95198 12.092 8.99736 12.092 10.276C12.092 11.5547 11.0404 12.6 9.75414 12.6C8.46788 12.6 7.41633 11.5547 7.41633 10.276C7.41633 8.99736 8.46787 7.95198 9.75414 7.95198ZM10.0546 20.972C9.79168 21.3266 9.37857 21.5227 8.95606 21.5227C8.67441 21.5227 8.39275 21.4386 8.14863 21.2613C7.54774 20.8227 7.41633 19.9733 7.85758 19.3667L16.946 7.02799C17.3873 6.4307 18.2416 6.29067 18.8519 6.73865C19.4528 7.17735 19.5842 8.02665 19.143 8.63335L10.0546 20.972ZM17.2464 20.048C15.9601 20.048 14.9086 19.0027 14.9086 17.724C14.9086 16.4453 15.9602 15.4 17.2464 15.4C18.5327 15.4 19.5842 16.4453 19.5842 17.724C19.5842 19.0027 18.5327 20.048 17.2464 20.048Z" fill="#F22F2F"/>
</svg>
