<svg width="47" height="45" viewBox="0 0 47 45" fill="none" xmlns="http://www.w3.org/2000/svg">
<path d="M36.1351 26.6079C37.5279 26.6079 38.6569 25.4882 38.6569 24.1071C38.6569 22.726 37.5279 21.6064 36.1351 21.6064C34.7423 21.6064 33.6133 22.726 33.6133 24.1071C33.6133 25.4882 34.7423 26.6079 36.1351 26.6079Z" fill="#0897A5"/>
<path fill-rule="evenodd" clip-rule="evenodd" d="M45.3789 9.99964H8.40247C7.49508 9.99964 6.62486 9.6422 5.98324 9.00595C5.34162 8.3697 4.98116 7.50676 4.98116 6.60696C4.98116 5.70717 5.34162 4.84423 5.98324 4.20798C6.62486 3.57173 7.49508 3.21428 8.40247 3.21428H40.3304C40.7602 3.21428 41.1724 3.04496 41.4764 2.74356C41.7803 2.44217 41.9511 2.03338 41.9511 1.60714C41.9511 1.1809 41.7803 0.772119 41.4764 0.470721C41.1724 0.169323 40.7602 0 40.3304 0H8.40247C6.63567 0.000851733 4.94148 0.697214 3.69216 1.93608C2.44284 3.17494 1.74061 4.85495 1.73975 6.60696V22.2637C1.73975 22.69 1.9105 23.0988 2.21444 23.4002C2.51838 23.7016 2.93061 23.8709 3.36045 23.8709C3.79029 23.8709 4.20252 23.7016 4.50646 23.4002C4.81041 23.0988 4.98116 22.69 4.98116 22.2637V12.277C6.01463 12.8916 7.19739 13.2155 8.40247 13.2139H43.7582V33.2678C43.7582 34.1676 43.3977 35.0306 42.7561 35.6668C42.1145 36.3031 41.2442 36.6605 40.3368 36.6605H23.4685C23.0387 36.6605 22.6265 36.8298 22.3225 37.1312C22.0186 37.4326 21.8478 37.8414 21.8478 38.2677C21.8478 38.6939 22.0186 39.1027 22.3225 39.4041C22.6265 39.7055 23.0387 39.8748 23.4685 39.8748H40.3368C42.1038 39.8744 43.7982 39.1782 45.0476 37.9392C46.297 36.7003 46.9991 35.02 46.9996 33.2678V11.6068C46.9996 11.1805 46.8288 10.7718 46.5249 10.4704C46.2209 10.169 45.8087 9.99964 45.3789 9.99964Z" fill="#0897A5"/>
<path fill-rule="evenodd" clip-rule="evenodd" d="M40.3377 4.99983H20.1681C19.7382 4.99983 19.326 5.16916 19.0221 5.47055C18.7181 5.77195 18.5474 6.18073 18.5474 6.60697C18.5474 7.03322 18.7181 7.442 19.0221 7.7434C19.326 8.04479 19.7382 8.21412 20.1681 8.21412H40.3377C40.7676 8.21412 41.1798 8.04479 41.4838 7.7434C41.7877 7.442 41.9585 7.03322 41.9585 6.60697C41.9585 6.18073 41.7877 5.77195 41.4838 5.47055C41.1798 5.16916 40.7676 4.99983 40.3377 4.99983Z" fill="#0897A5"/>
<path fill-rule="evenodd" clip-rule="evenodd" d="M10.0831 4.99983C9.65327 4.99983 9.24104 5.16916 8.9371 5.47055C8.63315 5.77195 8.4624 6.18073 8.4624 6.60697C8.4624 7.03322 8.63315 7.442 8.9371 7.7434C9.24104 8.04479 9.65327 8.21412 10.0831 8.21412H13.4509C13.8808 8.21412 14.293 8.04479 14.5969 7.7434C14.9009 7.442 15.0716 7.03322 15.0716 6.60697C15.0716 6.18073 14.9009 5.77195 14.5969 5.47055C14.293 5.16916 13.8808 4.99983 13.4509 4.99983H10.0831Z" fill="#0897A5"/>
<path fill-rule="evenodd" clip-rule="evenodd" d="M10.5178 24.3611C7.33544 24.204 4.18869 25.0846 1.55859 26.8682C1.07595 27.2138 0.68294 27.668 0.411894 28.1935C0.140849 28.7191 -0.000488281 29.301 -0.000488281 29.8913C-0.000488281 30.4816 0.140849 31.0634 0.411894 31.589C0.68294 32.1145 1.07595 32.5688 1.55859 32.9143C4.18869 34.6979 7.33544 35.5785 10.5178 35.4214C13.7003 35.5785 16.847 34.6979 19.4771 32.9143C19.9604 32.5692 20.354 32.1151 20.6254 31.5895C20.8969 31.0639 21.0385 30.4818 21.0385 29.8913C21.0385 29.3007 20.8969 28.7186 20.6254 28.193C20.354 27.6674 19.9604 27.2133 19.4771 26.8682C16.847 25.0846 13.7003 24.204 10.5178 24.3611ZM17.5712 30.2802C17.3611 30.4976 17.121 30.6843 16.858 30.8347C14.8975 31.8216 12.7148 32.2941 10.5178 32.2072C8.32094 32.2939 6.13822 31.8214 4.17765 30.8347C3.91523 30.6834 3.67524 30.4968 3.46454 30.2802C3.34573 30.1817 3.26639 30.0443 3.24088 29.8929C3.26527 29.741 3.34482 29.6033 3.46454 29.5055C3.6748 29.2884 3.91486 29.1018 4.17765 28.9511C6.13778 27.9629 8.32072 27.4898 10.5178 27.577C12.715 27.4896 14.898 27.9627 16.858 28.9511C17.1214 29.1009 17.3616 29.2877 17.5712 29.5055C17.6918 29.6027 17.7721 29.7406 17.7964 29.8929C17.7713 30.0448 17.6912 30.1825 17.5712 30.2802Z" fill="#0897A5"/>
<path fill-rule="evenodd" clip-rule="evenodd" d="M17.5564 35.2254C17.0904 35.7155 16.5107 36.0851 15.8676 36.3021C14.158 36.9345 12.3436 37.242 10.5193 37.2086C8.69494 37.2421 6.88055 36.9346 5.17096 36.3021C4.52765 36.0847 3.94745 35.7151 3.48057 35.2254C3.35072 35.0529 3.18725 34.908 2.99986 34.7993C2.81246 34.6906 2.60496 34.6204 2.38967 34.5928C2.17438 34.5652 1.9557 34.5807 1.74658 34.6385C1.53747 34.6963 1.3422 34.7952 1.17236 34.9293C1.00252 35.0633 0.861572 35.2299 0.75788 35.419C0.654188 35.6081 0.589867 35.816 0.568734 36.0302C0.5476 36.2444 0.570086 36.4607 0.634855 36.6662C0.699625 36.8716 0.805359 37.0621 0.945782 37.2263C2.34931 38.9764 6.07369 40.4229 10.5193 40.4229C14.9649 40.4229 18.6909 38.9764 20.0944 37.2263C20.2304 37.0615 20.332 36.8715 20.3933 36.6675C20.4546 36.4635 20.4744 36.2494 20.4515 36.0377C20.4287 35.826 20.3637 35.6209 20.2603 35.4343C20.1568 35.2478 20.017 35.0834 19.849 34.9509C19.681 34.8183 19.4881 34.7202 19.2815 34.6622C19.0749 34.6042 18.8588 34.5875 18.6456 34.6131C18.4325 34.6386 18.2266 34.7059 18.0399 34.811C17.8532 34.9161 17.6894 35.057 17.558 35.2254H17.5564Z" fill="#0897A5"/>
<path fill-rule="evenodd" clip-rule="evenodd" d="M17.5566 39.8025C17.0907 40.2926 16.5109 40.6623 15.8678 40.8793C14.1578 41.5119 12.3428 41.8194 10.5179 41.7857C8.69354 41.8193 6.87914 41.5118 5.16957 40.8793C4.52626 40.6619 3.94606 40.2923 3.47917 39.8025C3.34813 39.633 3.18434 39.4911 2.99737 39.3851C2.81039 39.2791 2.60398 39.2111 2.39021 39.1851C2.17644 39.1591 1.95958 39.1757 1.75232 39.2337C1.54506 39.2918 1.35155 39.3902 1.1831 39.5233C1.01464 39.6564 0.87463 39.8214 0.771236 40.0088C0.667842 40.1962 0.603142 40.4021 0.580917 40.6145C0.558693 40.8269 0.57939 41.0416 0.641798 41.246C0.704207 41.4504 0.807075 41.6405 0.944391 41.805C2.34792 43.5536 6.0723 45 10.5179 45C14.9635 45 18.6895 43.5536 20.093 41.805C20.2256 41.6398 20.3241 41.4504 20.3829 41.2475C20.4417 41.0446 20.4595 40.8322 20.4355 40.6225C20.4115 40.4127 20.3461 40.2097 20.243 40.025C20.1399 39.8404 20.0011 39.6776 19.8345 39.5462C19.668 39.4147 19.477 39.317 19.2723 39.2587C19.0677 39.2004 18.8536 39.1827 18.642 39.2065C18.4305 39.2303 18.2258 39.2952 18.0396 39.3975C17.8533 39.4997 17.6892 39.6373 17.5566 39.8025Z" fill="#0897A5"/>
</svg>
