<svg width="32" height="22" viewBox="0 0 32 22" fill="none" xmlns="http://www.w3.org/2000/svg">
<path d="M25.3333 21.4426H6.66667C4.89921 21.4405 3.20474 20.7339 1.95496 19.4777C0.705176 18.2215 0.00211714 16.5183 0 14.7418L0 6.70083C0.00211714 4.92431 0.705176 3.22116 1.95496 1.96498C3.20474 0.708789 4.89921 0.00212799 6.66667 0H25.3333C27.1008 0.00212799 28.7953 0.708789 30.045 1.96498C31.2948 3.22116 31.9979 4.92431 32 6.70083V14.7418C31.9979 16.5183 31.2948 18.2215 30.045 19.4777C28.7953 20.7339 27.1008 21.4405 25.3333 21.4426ZM6.66667 2.68033C5.6058 2.68033 4.58839 3.10392 3.83824 3.85791C3.08809 4.6119 2.66667 5.63452 2.66667 6.70083V14.7418C2.66667 15.8081 3.08809 16.8307 3.83824 17.5847C4.58839 18.3387 5.6058 18.7623 6.66667 18.7623H25.3333C26.3942 18.7623 27.4116 18.3387 28.1618 17.5847C28.9119 16.8307 29.3333 15.8081 29.3333 14.7418V6.70083C29.3333 5.63452 28.9119 4.6119 28.1618 3.85791C27.4116 3.10392 26.3942 2.68033 25.3333 2.68033H6.66667ZM16 16.082C14.9452 16.082 13.914 15.7676 13.037 15.1785C12.1599 14.5895 11.4763 13.7523 11.0726 12.7728C10.669 11.7932 10.5634 10.7154 10.7691 9.67551C10.9749 8.63564 11.4829 7.68046 12.2288 6.93076C12.9746 6.18106 13.925 5.67051 14.9595 5.46366C15.9941 5.25682 17.0664 5.36298 18.041 5.76872C19.0155 6.17445 19.8485 6.86154 20.4345 7.7431C21.0205 8.62466 21.3333 9.66108 21.3333 10.7213C21.3333 12.1431 20.7714 13.5066 19.7712 14.5119C18.771 15.5172 17.4145 16.082 16 16.082ZM16 8.04099C15.4726 8.04099 14.957 8.19819 14.5185 8.49271C14.0799 8.78723 13.7382 9.20584 13.5363 9.6956C13.3345 10.1854 13.2817 10.7243 13.3846 11.2442C13.4875 11.7642 13.7414 12.2418 14.1144 12.6166C14.4873 12.9915 14.9625 13.2467 15.4798 13.3502C15.997 13.4536 16.5332 13.4005 17.0205 13.1976C17.5078 12.9948 17.9242 12.6512 18.2173 12.2104C18.5103 11.7697 18.6667 11.2514 18.6667 10.7213C18.6667 10.0105 18.3857 9.3287 17.8856 8.82604C17.3855 8.32338 16.7072 8.04099 16 8.04099ZM6.66667 5.36066C6.40296 5.36066 6.14517 5.43926 5.92591 5.58652C5.70664 5.73378 5.53574 5.94308 5.43483 6.18797C5.33391 6.43285 5.30751 6.70231 5.35895 6.96228C5.4104 7.22225 5.53739 7.46104 5.72386 7.64847C5.91033 7.83589 6.14791 7.96353 6.40655 8.01524C6.66519 8.06695 6.93328 8.04041 7.17691 7.93898C7.42055 7.83754 7.62878 7.66577 7.77529 7.44538C7.9218 7.22499 8 6.96589 8 6.70083C8 6.34539 7.85952 6.00452 7.60948 5.75319C7.35943 5.50186 7.02029 5.36066 6.66667 5.36066ZM24 6.70083C24 6.96589 24.0782 7.22499 24.2247 7.44538C24.3712 7.66577 24.5795 7.83754 24.8231 7.93898C25.0667 8.04041 25.3348 8.06695 25.5935 8.01524C25.8521 7.96353 26.0897 7.83589 26.2761 7.64847C26.4626 7.46104 26.5896 7.22225 26.641 6.96228C26.6925 6.70231 26.6661 6.43285 26.5652 6.18797C26.4643 5.94308 26.2934 5.73378 26.0741 5.58652C25.8548 5.43926 25.597 5.36066 25.3333 5.36066C24.9797 5.36066 24.6406 5.50186 24.3905 5.75319C24.1405 6.00452 24 6.34539 24 6.70083ZM6.66667 13.4017C6.40296 13.4017 6.14517 13.4803 5.92591 13.6275C5.70664 13.7748 5.53574 13.9841 5.43483 14.229C5.33391 14.4738 5.30751 14.7433 5.35895 15.0033C5.4104 15.2632 5.53739 15.502 5.72386 15.6895C5.91033 15.8769 6.14791 16.0045 6.40655 16.0562C6.66519 16.1079 6.93328 16.0814 7.17691 15.98C7.42055 15.8785 7.62878 15.7068 7.77529 15.4864C7.9218 15.266 8 15.0069 8 14.7418C8 14.3864 7.85952 14.0455 7.60948 13.7942C7.35943 13.5428 7.02029 13.4017 6.66667 13.4017ZM24 14.7418C24 15.0069 24.0782 15.266 24.2247 15.4864C24.3712 15.7068 24.5795 15.8785 24.8231 15.98C25.0667 16.0814 25.3348 16.1079 25.5935 16.0562C25.8521 16.0045 26.0897 15.8769 26.2761 15.6895C26.4626 15.502 26.5896 15.2632 26.641 15.0033C26.6925 14.7433 26.6661 14.4738 26.5652 14.229C26.4643 13.9841 26.2934 13.7748 26.0741 13.6275C25.8548 13.4803 25.597 13.4017 25.3333 13.4017C24.9797 13.4017 24.6406 13.5428 24.3905 13.7942C24.1405 14.0455 24 14.3864 24 14.7418Z" fill="#0897A5"/>
</svg>
