<svg width="23" height="33" viewBox="0 0 23 33" fill="none" xmlns="http://www.w3.org/2000/svg">
<path d="M22.2357 12.9704C21.7337 11.8693 20.6694 11.1851 19.4581 11.1851H14.9685L18.9974 4.04482C19.4869 3.20745 19.495 2.20433 19.0181 1.35831C18.5387 0.507787 17.673 0 16.7023 0C16.0944 0 15.4994 0.212203 15.0269 0.597587C15.003 0.616971 14.98 0.637244 14.9576 0.658344L1.31034 13.5516C0.405206 14.3453 -0.0691549 15.4801 0.00817071 16.67C0.14163 18.7241 1.77525 20.273 3.80798 20.273H8.07224L3.75556 28.6252C3.75121 28.6336 3.74692 28.6421 3.74276 28.6506C3.15588 29.8511 3.49829 31.2361 4.57549 32.0189C5.05528 32.3675 5.60141 32.5391 6.14332 32.5391C6.818 32.5391 7.48605 32.273 8.01018 31.7517C8.02361 31.7384 8.03673 31.7246 8.0496 31.7107L17.8256 21.0731C18.2989 20.558 18.2682 19.7538 17.7571 19.2769C17.2459 18.8 16.4478 18.8308 15.9744 19.3459L6.22097 29.9591C6.18035 29.9973 6.13853 30.0206 6.05118 29.9572C5.95821 29.8895 5.97417 29.8402 6.0004 29.7855L11.2703 19.5891C11.4739 19.1951 11.4586 18.7225 11.2299 18.3428C11.0012 17.9629 10.5923 17.731 10.1515 17.731H3.8081C3.01857 17.731 2.56534 17.1137 2.52573 16.504C2.50738 16.2214 2.57045 15.8112 2.97524 15.4617C2.9895 15.4493 3.00356 15.4367 3.01731 15.4236L16.6322 2.56099C16.6534 2.54866 16.6777 2.54205 16.7023 2.54205C16.7268 2.54205 16.784 2.54205 16.8244 2.61361C16.8647 2.68517 16.8354 2.73468 16.8229 2.75584C16.8184 2.7634 16.814 2.77103 16.8097 2.77872L11.7038 11.8279C11.4818 12.2214 11.4841 12.7042 11.71 13.0953C11.9359 13.4866 12.3511 13.7272 12.8003 13.7272H19.458C19.7594 13.7272 19.8913 13.9179 19.943 14.0315C19.9961 14.1479 20.055 14.3785 19.8534 14.615C19.3995 15.1475 19.4599 15.95 19.9884 16.4074C20.5169 16.8647 21.3133 16.8038 21.7672 16.2713C22.5603 15.341 22.7397 14.0762 22.2357 12.9704Z" fill="#0897A5"/>
</svg>
