<svg width="32" height="32" viewBox="0 0 32 32" fill="none" xmlns="http://www.w3.org/2000/svg">
<path d="M21.3337 21.3243C21.3337 21.5879 21.2555 21.8455 21.109 22.0647C20.9625 22.2839 20.7542 22.4547 20.5106 22.5556C20.267 22.6565 19.9989 22.6829 19.7403 22.6314C19.4816 22.58 19.2441 22.4531 19.0576 22.2667C18.8711 22.0803 18.7441 21.8428 18.6927 21.5843C18.6413 21.3257 18.6677 21.0578 18.7686 20.8142C18.8695 20.5707 19.0404 20.3626 19.2596 20.2161C19.4789 20.0697 19.7367 19.9915 20.0004 19.9915C20.354 19.9915 20.6931 20.1319 20.9431 20.3819C21.1932 20.6318 21.3337 20.9708 21.3337 21.3243ZM25.3335 19.9915C25.0698 19.9915 24.8121 20.0697 24.5928 20.2161C24.3735 20.3626 24.2026 20.5707 24.1017 20.8142C24.0008 21.0578 23.9744 21.3257 24.0259 21.5843C24.0773 21.8428 24.2043 22.0803 24.3908 22.2667C24.5772 22.4531 24.8148 22.58 25.0734 22.6314C25.3321 22.6829 25.6001 22.6565 25.8438 22.5556C26.0874 22.4547 26.2956 22.2839 26.4421 22.0647C26.5886 21.8455 26.6668 21.5879 26.6668 21.3243C26.6668 20.9708 26.5264 20.6318 26.2763 20.3819C26.0263 20.1319 25.6871 19.9915 25.3335 19.9915ZM22.667 15.9932C22.4033 15.9932 22.1455 16.0714 21.9262 16.2178C21.707 16.3643 21.5361 16.5724 21.4352 16.8159C21.3342 17.0595 21.3078 17.3274 21.3593 17.586C21.4107 17.8445 21.5377 18.082 21.7242 18.2684C21.9106 18.4548 22.1482 18.5817 22.4068 18.6331C22.6655 18.6846 22.9336 18.6582 23.1772 18.5573C23.4208 18.4564 23.629 18.2856 23.7755 18.0664C23.922 17.8472 24.0002 17.5896 24.0002 17.326C24.0002 16.9725 23.8598 16.6335 23.6097 16.3836C23.3597 16.1336 23.0206 15.9932 22.667 15.9932ZM32 21.3243C32.0026 23.3626 31.4199 25.3588 30.3211 27.0759C29.2223 28.793 27.6536 30.1588 25.8012 31.0111C23.9489 31.8633 21.8908 32.1663 19.8713 31.8839C17.8518 31.6016 15.9559 30.7458 14.4085 29.4182C13.9334 30.2007 13.2649 30.848 12.4673 31.2977C11.6697 31.7475 10.7698 31.9846 9.85402 31.9864H6.14748C5.13393 31.9872 4.14114 31.6993 3.2854 31.1564C2.42965 30.6135 1.74638 29.8381 1.31563 28.921C0.424576 26.9542 -0.0241713 24.816 0.00100357 22.657C0.161091 20.0766 0.956156 17.5756 2.3156 15.3761C3.22441 13.9513 3.80043 12.34 4.00088 10.6621C3.84883 9.67431 3.60146 8.70353 3.26223 7.76337C2.95812 6.98219 2.75819 6.1644 2.66759 5.33107C2.66759 3.91718 3.22947 2.5612 4.22963 1.56143C5.2298 0.561664 6.58631 0 8.00075 0C9.41519 0 10.7717 0.561664 11.7719 1.56143C12.772 2.5612 13.3339 3.91718 13.3339 5.33107C13.2433 6.1644 13.0434 6.98219 12.7393 7.76337C12.4 8.70353 12.1527 9.67431 12.0006 10.6621C12.1144 11.9981 12.5277 13.2914 13.2099 14.4459C14.6182 12.7764 16.506 11.5803 18.6174 11.0197C20.7288 10.4592 22.9616 10.5613 25.0129 11.3122C27.0643 12.0631 28.835 13.4266 30.0849 15.2176C31.3348 17.0086 32.0034 19.1405 32 21.3243ZM5.33417 5.33107C5.3555 5.53098 5.61549 6.35996 5.80615 6.96504C6.25667 8.15357 6.54633 9.39693 6.66746 10.6621H9.33404C9.45517 9.39693 9.74483 8.15357 10.1953 6.96504C10.3828 6.41734 10.5404 5.85986 10.6673 5.29508C10.6626 4.58814 10.377 3.91205 9.87358 3.41554C9.37012 2.91903 8.68997 2.64277 7.98275 2.64754C7.27553 2.65231 6.59917 2.93772 6.10246 3.44098C5.60576 3.94424 5.32939 4.62412 5.33417 5.33107ZM12.2673 27.7962C12.9945 26.1817 13.3586 24.4274 13.3339 22.657C13.1569 20.5069 12.4655 18.4308 11.318 16.6036C10.7406 15.5497 10.2415 14.4548 9.82469 13.3277H6.17681C5.76004 14.4548 5.26093 15.5497 4.68352 16.6036C3.53597 18.4308 2.84457 20.5069 2.66759 22.657C2.64307 24.4279 3.00715 26.1825 3.73422 27.7975C3.95074 28.2539 4.29254 28.6394 4.71979 28.9091C5.14704 29.1788 5.64216 29.3216 6.14748 29.3209H9.85402C10.3595 29.3215 10.8547 29.1785 11.282 28.9085C11.7092 28.6386 12.0509 28.2528 12.2673 27.7962ZM29.3334 21.3243C29.3358 19.5868 28.7711 17.8961 27.7252 16.5085C26.6792 15.1209 25.209 14.1121 23.5376 13.6354C21.8662 13.1586 20.0849 13.2398 18.4638 13.8666C16.8428 14.4935 15.4705 15.6317 14.5552 17.1087C15.4482 18.826 15.9422 20.7225 16.0005 22.657C16.0008 24.0341 15.8178 25.4051 15.4565 26.734C16.5454 27.9197 17.9672 28.749 19.5357 29.113C21.1041 29.4771 22.746 29.359 24.2462 28.7742C25.7464 28.1894 27.0348 27.1651 27.9425 25.8357C28.8503 24.5064 29.3351 22.9338 29.3334 21.3243Z" fill="#0897A5"/>
</svg>
