<svg width="14" height="16" viewBox="0 0 14 16" fill="none" xmlns="http://www.w3.org/2000/svg">
<path d="M11.7386 5.616V4.66666C11.7386 2.08934 9.61719 0 7.00019 0C4.38319 0 2.26173 2.08934 2.26173 4.66666V5.616C1.02975 6.14553 0.232734 7.34284 0.230957 8.66666V12.6667C0.233178 14.5067 1.74721 15.9978 3.61556 16H10.3848C12.2531 15.9978 13.7672 14.5067 13.7694 12.6667V8.66666C13.7677 7.34284 12.9706 6.14553 11.7386 5.616ZM7.6771 11.3333C7.6771 11.7015 7.37404 12 7.00019 12C6.62634 12 6.32327 11.7015 6.32327 11.3333V10C6.32327 9.63181 6.62634 9.33334 7.00019 9.33334C7.37404 9.33334 7.6771 9.63181 7.6771 10V11.3333ZM10.3848 5.33334H3.61556V4.66669C3.61556 2.82575 5.13089 1.33334 7.00019 1.33334C8.86948 1.33334 10.3848 2.82572 10.3848 4.66669V5.33334Z" fill="#454545"/>
</svg>
