<svg width="50" height="50" viewBox="0 0 50 50" fill="none" xmlns="http://www.w3.org/2000/svg">
<path d="M49.8433 14.9164L45.5029 4.746C44.2726 1.86289 41.452 0 38.3174 0H11.6826C8.54795 0 5.72754 1.86289 4.49707 4.746L0.156738 14.9164C0.0533203 15.1588 0 15.4195 0 15.683V18.2221C0 20.892 1.6083 23.1921 3.90625 24.2082V42.1875C3.90625 46.4953 7.41094 50 11.7188 50H38.2812C42.5891 50 46.0938 46.4953 46.0938 42.1875C46.0938 41.1088 45.2193 40.2344 44.1406 40.2344C43.0619 40.2344 42.1875 41.1088 42.1875 42.1875C42.1875 44.3414 40.4352 46.0938 38.2812 46.0938H11.7188C9.56484 46.0938 7.8125 44.3414 7.8125 42.1875V24.6404C9.09189 24.3878 10.2382 23.7613 11.1328 22.8795C11.3176 23.0616 11.5136 23.2322 11.7188 23.3915V36.0352C11.7188 37.1139 12.5932 37.9883 13.6719 37.9883H36.3281C37.4068 37.9883 38.2812 37.1139 38.2812 36.0352V23.3915C38.4864 23.2322 38.6824 23.0616 38.8672 22.8795C39.7618 23.7613 40.9081 24.3878 42.1875 24.6404V32.4219C42.1875 33.5006 43.0619 34.375 44.1406 34.375C45.2193 34.375 46.0938 33.5006 46.0938 32.4219V24.2083C48.3917 23.1921 50 20.8921 50 18.2222V15.6831C50 15.4195 49.9467 15.1588 49.8433 14.9164ZM9.17969 18.2221C9.17969 19.676 7.99687 20.8588 6.54297 20.8588C5.08906 20.8588 3.90625 19.676 3.90625 18.2221V17.5781H9.17969V18.2221ZM13.0859 18.2221V17.5781H18.3594V18.2221C18.3594 19.676 17.1766 20.8588 15.7227 20.8588C14.2688 20.8588 13.0859 19.676 13.0859 18.2221ZM34.375 34.082H15.625V24.7626C15.6576 24.7631 15.6899 24.765 15.7227 24.765C17.5239 24.765 19.1575 24.0332 20.3418 22.8515C21.5414 24.0337 23.1866 24.765 25 24.765C26.8134 24.765 28.4586 24.0337 29.6582 22.8515C30.8426 24.0332 32.4761 24.765 34.2773 24.765C34.3101 24.765 34.3424 24.763 34.375 24.7626V34.082ZM22.2656 18.1244V17.5781H27.7344V18.1244C27.7344 19.6321 26.5077 20.8588 25 20.8588C23.4923 20.8588 22.2656 19.6321 22.2656 18.1244ZM36.9141 18.2221C36.9141 19.676 35.7313 20.8588 34.2773 20.8588C32.8234 20.8588 31.6406 19.676 31.6406 18.2221V17.5781H36.9141V18.2221ZM4.93496 13.6719L8.08984 6.2792C8.70508 4.8377 10.1153 3.90625 11.6826 3.90625H38.3174C39.8847 3.90625 41.2949 4.8377 41.9102 6.2792L45.065 13.6719H4.93496ZM46.0938 18.2221C46.0938 19.676 44.9109 20.8588 43.457 20.8588C42.0031 20.8588 40.8203 19.676 40.8203 18.2221V17.5781H46.0938V18.2221Z" fill="#0897A5"/>
</svg>
