<svg width="36" height="36" viewBox="0 0 36 36" fill="none" xmlns="http://www.w3.org/2000/svg">
<path d="M18 18.2096C18.7767 18.2096 19.4062 17.6004 19.4062 16.8489C19.4062 16.0974 18.7767 15.4882 18 15.4882C17.2233 15.4882 16.5938 16.0974 16.5938 16.8489C16.5938 17.6004 17.2233 18.2096 18 18.2096Z" fill="#C4C4C4"/>
<path d="M12.2344 24.4675H23.7656C26.0918 24.4675 27.9844 22.6362 27.9844 20.3853V13.0373C27.9844 10.7864 26.0918 8.95508 23.7656 8.95508H23.4827V5.71768C23.4827 2.8517 21.0224 0.520081 17.9983 0.520081C14.9742 0.520081 12.5139 2.8517 12.5139 5.71768V8.95508H12.2344C9.90816 8.95508 8.01562 10.7864 8.01562 13.0373V20.3853C8.01562 22.6362 9.90816 24.4675 12.2344 24.4675ZM15.3264 5.71768C15.3264 4.35232 16.5251 3.24155 17.9983 3.24155C19.4716 3.24155 20.6702 4.35232 20.6702 5.71768V8.95508H15.3264V5.71768ZM10.8281 13.0373C10.8281 12.287 11.459 11.6766 12.2344 11.6766H23.7656C24.541 11.6766 25.1719 12.287 25.1719 13.0373V20.3853C25.1719 21.1356 24.541 21.746 23.7656 21.746H12.2344C11.459 21.746 10.8281 21.1356 10.8281 20.3853V13.0373Z" fill="#C4C4C4"/>
<path d="M15.1875 29.912C15.9642 29.912 16.5938 29.3027 16.5938 28.5512C16.5938 27.7997 15.9642 27.1905 15.1875 27.1905C14.4108 27.1905 13.7812 27.7997 13.7812 28.5512C13.7812 29.3027 14.4108 29.912 15.1875 29.912Z" fill="#C4C4C4"/>
<path d="M9.5625 29.912C10.3392 29.912 10.9688 29.3027 10.9688 28.5512C10.9688 27.7997 10.3392 27.1905 9.5625 27.1905C8.78585 27.1905 8.15625 27.7997 8.15625 28.5512C8.15625 29.3027 8.78585 29.912 9.5625 29.912Z" fill="#C4C4C4"/>
<path d="M31.7802 21.9191C31.0278 21.7319 30.2614 22.1699 30.0678 22.8977C29.8742 23.6255 30.327 24.3673 31.0791 24.5546C32.3205 24.8639 33.1875 25.9478 33.1875 27.1905V29.912C33.1875 31.4126 31.9258 32.6335 30.375 32.6335H5.625C4.07419 32.6335 2.8125 31.4126 2.8125 29.912V27.1905C2.8125 25.9918 3.64106 24.9182 4.82745 24.5797C5.57241 24.3671 5.99822 23.6104 5.77849 22.8897C5.55884 22.1688 4.77654 21.7568 4.03193 21.9694C2.89083 22.2949 1.86469 22.9814 1.14244 23.9021C0.395086 24.8548 0 25.9919 0 27.1905V29.912C0 32.9132 2.52338 35.3549 5.625 35.3549H30.375C33.4766 35.3549 36 32.9132 36 29.912V27.1905C36 24.7056 34.2648 22.5379 31.7802 21.9191Z" fill="#C4C4C4"/>
<path d="M20.8125 29.912C21.5892 29.912 22.2188 29.3027 22.2188 28.5512C22.2188 27.7997 21.5892 27.1905 20.8125 27.1905C20.0358 27.1905 19.4062 27.7997 19.4062 28.5512C19.4062 29.3027 20.0358 29.912 20.8125 29.912Z" fill="#C4C4C4"/>
<path d="M26.4375 29.912C27.2142 29.912 27.8438 29.3027 27.8438 28.5512C27.8438 27.7997 27.2142 27.1905 26.4375 27.1905C25.6608 27.1905 25.0312 27.7997 25.0312 28.5512C25.0312 29.3027 25.6608 29.912 26.4375 29.912Z" fill="#C4C4C4"/>
</svg>
