<svg width="33" height="32" viewBox="0 0 33 32" fill="none" xmlns="http://www.w3.org/2000/svg">
<path d="M28.8713 13.2224H24.3201L18.4752 2.06666C18.1199 1.4411 17.5958 0.919051 16.9579 0.555386C16.32 0.191721 15.5919 -0.000128584 14.8502 3.31657e-06H14.5997C14.0381 -0.000741918 13.4839 0.124113 12.9811 0.36469C12.4784 0.605266 12.0408 0.954961 11.703 1.3861C11.3652 1.81724 11.1364 2.318 11.0349 2.84875C10.9333 3.37949 10.9617 3.92566 11.1179 4.44404L13.7712 13.2224H10.4903C9.94772 13.2237 9.41025 13.1217 8.90897 12.9222C8.4077 12.7227 7.95257 12.4297 7.56993 12.0601L5.61981 10.1812C5.12136 9.70282 4.47725 9.38942 3.7809 9.28647C3.08454 9.18353 2.37216 9.29639 1.74708 9.6087C1.3603 9.80042 1.01842 10.0661 0.742462 10.3895C0.466502 10.7128 0.262294 11.087 0.14239 11.4889C0.00977825 11.9202 -0.0307846 12.3727 0.0231354 12.8194C0.0770554 13.2661 0.224347 13.6978 0.456172 14.0884L2.67741 17.8238C3.28043 18.8347 4.15022 19.6751 5.1991 20.2601C6.24797 20.8451 7.43885 21.154 8.65165 21.1558H13.7589L11.4633 27.0358C11.2578 27.5617 11.188 28.1276 11.2599 28.6851C11.3319 29.2426 11.5433 29.7751 11.8763 30.2369C12.2092 30.6987 12.6537 31.0761 13.1716 31.3367C13.6895 31.5974 14.2655 31.7336 14.8502 31.7337C15.5791 31.7374 16.2958 31.5539 16.9261 31.2022C17.5564 30.8504 18.0775 30.3433 18.4353 29.7331L24.0049 21.1558H28.8713C29.9663 21.1558 31.0164 20.7379 31.7907 19.994C32.565 19.2501 33 18.2411 33 17.1891C33 16.137 32.565 15.1281 31.7907 14.3842C31.0164 13.6403 29.9663 13.2224 28.8713 13.2224ZM13.7671 3.70888C13.7298 3.58482 13.723 3.45413 13.7472 3.32712C13.7715 3.2001 13.8262 3.08025 13.9069 2.97702C13.9877 2.87379 14.0923 2.79001 14.2125 2.7323C14.3328 2.67458 14.4653 2.64452 14.5997 2.64448H14.8502C15.0902 2.64249 15.3264 2.7015 15.535 2.81551C15.7436 2.92953 15.9171 3.09449 16.0379 3.29369L21.2401 13.2224H16.6366L13.7671 3.70888ZM28.8713 18.5113H23.2411C23.0076 18.5115 22.7779 18.5687 22.5737 18.6776C22.3696 18.7866 22.1976 18.9437 22.0741 19.1341L16.0585 28.4003C15.9401 28.6088 15.7654 28.7829 15.5528 28.9041C15.3401 29.0253 15.0975 29.0893 14.8502 29.0892C14.7103 29.0893 14.5725 29.0568 14.4485 28.9945C14.3246 28.9321 14.2183 28.8418 14.1387 28.7312C14.0591 28.6207 14.0086 28.4933 13.9916 28.3598C13.9746 28.2264 13.9915 28.091 14.041 27.9653L17.0329 20.2963C17.1107 20.0963 17.1369 19.8811 17.1093 19.6692C17.0817 19.4574 17.0011 19.2551 16.8743 19.0796C16.7476 18.9042 16.5785 18.7609 16.3816 18.6619C16.1846 18.5629 15.9657 18.5113 15.7434 18.5113H8.65165C7.92484 18.5102 7.21123 18.3247 6.58294 17.9736C5.95464 17.6226 5.43394 17.1184 5.07344 16.5121L2.84532 12.7755C2.79869 12.6958 2.76896 12.608 2.75786 12.5172C2.74676 12.4264 2.7545 12.3344 2.78063 12.2466C2.79442 12.188 2.82092 12.1329 2.85838 12.0848C2.89585 12.0367 2.94345 11.9968 2.99808 11.9676C3.08291 11.9243 3.17729 11.9012 3.27332 11.9001C3.42103 11.9011 3.5626 11.957 3.6683 12.0562L5.61843 13.9298C6.2568 14.5462 7.0161 15.0347 7.85237 15.3672C8.68864 15.6997 9.58525 15.8696 10.4903 15.8668H28.8713C29.2363 15.8668 29.5863 16.0061 29.8444 16.2541C30.1025 16.5021 30.2475 16.8384 30.2475 17.1891C30.2475 17.5398 30.1025 17.8761 29.8444 18.124C29.5863 18.372 29.2363 18.5113 28.8713 18.5113Z" fill="#0897A5"/>
</svg>
