<svg width="30" height="30" viewBox="0 0 30 30" fill="none" xmlns="http://www.w3.org/2000/svg">
<path d="M15.0001 6.95775C14.0641 6.95775 13.1663 7.35481 12.5044 8.06158C11.8426 8.76836 11.4707 9.72695 11.4707 10.7265V25.8014C11.4707 26.8009 11.8426 27.7595 12.5044 28.4663C13.1663 29.1731 14.0641 29.5701 15.0001 29.5701C15.9362 29.5701 16.8339 29.1731 17.4958 28.4663C18.1577 27.7595 18.5295 26.8009 18.5295 25.8014V10.7265C18.5295 9.72695 18.1577 8.76836 17.4958 8.06158C16.8339 7.35481 15.9362 6.95775 15.0001 6.95775Z" fill="#0897A5"/>
<path d="M26.4706 -3.05176e-05C25.5345 -3.05176e-05 24.6368 0.389395 23.9749 1.08258C23.313 1.77576 22.9412 2.71591 22.9412 3.69622V25.8737C22.9412 26.854 23.313 27.7942 23.9749 28.4874C24.6368 29.1806 25.5345 29.57 26.4706 29.57C27.4066 29.57 28.3044 29.1806 28.9662 28.4874C29.6281 27.7942 30 26.854 30 25.8737V3.69622C30 2.71591 29.6281 1.77576 28.9662 1.08258C28.3044 0.389395 27.4066 -3.05176e-05 26.4706 -3.05176e-05V-3.05176e-05ZM27.647 25.8737C27.647 26.2005 27.5231 26.5139 27.3025 26.745C27.0818 26.976 26.7826 27.1058 26.4706 27.1058C26.1586 27.1058 25.8593 26.976 25.6387 26.745C25.4181 26.5139 25.2941 26.2005 25.2941 25.8737V3.69622C25.2941 3.36945 25.4181 3.05607 25.6387 2.82501C25.8593 2.59395 26.1586 2.46414 26.4706 2.46414C26.7826 2.46414 27.0818 2.59395 27.3025 2.82501C27.5231 3.05607 27.647 3.36945 27.647 3.69622V25.8737Z" fill="#21BAC9"/>
<path d="M3.97059 14.7851C2.91752 14.7851 1.90759 15.1746 1.16296 15.8677C0.418329 16.5609 0 17.5011 0 18.4814L0 25.8739C0 26.8542 0.418329 27.7943 1.16296 28.4875C1.90759 29.1807 2.91752 29.5701 3.97059 29.5701C5.02366 29.5701 6.03359 29.1807 6.77822 28.4875C7.52285 27.7943 7.94118 26.8542 7.94118 25.8739V18.4814C7.94118 17.5011 7.52285 16.5609 6.77822 15.8677C6.03359 15.1746 5.02366 14.7851 3.97059 14.7851Z" fill="#21BAC9"/>
</svg>
