<svg width="24" height="12" viewBox="0 0 24 12" fill="none" xmlns="http://www.w3.org/2000/svg">
<path d="M15.4644 1.99984C15.1874 1.52082 14.5734 1.35681 14.0983 1.63382L13.0003 2.26785V0.999796C13.0003 0.447774 12.5533 -0.000244141 12.0003 -0.000244141C11.4472 -0.000244141 11.0002 0.447774 11.0002 0.999796V2.26785L9.90218 1.63382C9.42516 1.35681 8.81214 1.52082 8.53613 1.99984C8.26011 2.47786 8.42412 3.08988 8.90214 3.36589L10.0002 3.99992L8.90214 4.63394C8.42412 4.90995 8.26011 5.52198 8.53613 6C8.72213 6.32101 9.05715 6.50002 9.40316 6.50002C9.57317 6.50002 9.74517 6.45702 9.90218 6.36601L11.0002 5.73199V7.00004C11.0002 7.55206 11.4472 8.00008 12.0003 8.00008C12.5533 8.00008 13.0003 7.55206 13.0003 7.00004V5.73199L14.0983 6.36601C14.2554 6.45702 14.4274 6.50002 14.5974 6.50002C14.9434 6.50002 15.2794 6.32101 15.4644 6C15.7404 5.52198 15.5764 4.90995 15.0984 4.63394L14.0003 3.99992L15.0984 3.36589C15.5764 3.08988 15.7404 2.47786 15.4644 1.99984Z" fill="#454545"/>
<path d="M7.06206 1.99984C6.78505 1.52082 6.17202 1.35681 5.696 1.63382L4.59796 2.26785V0.999796C4.59796 0.447774 4.15094 -0.000244141 3.59792 -0.000244141C3.0449 -0.000244141 2.59788 0.447774 2.59788 0.999796V2.26785L1.49984 1.63382C1.02182 1.35681 0.410793 1.52082 0.133782 1.99984C-0.142229 2.47786 0.0217777 3.08988 0.499797 3.36589L1.59784 3.99992L0.499797 4.63394C0.0217777 4.90995 -0.142229 5.52198 0.133782 6C0.31979 6.32101 0.654803 6.50002 1.00082 6.50002C1.17082 6.50002 1.34283 6.45702 1.49984 6.36601L2.59788 5.73199V7.00004C2.59788 7.55206 3.0449 8.00008 3.59792 8.00008C4.15094 8.00008 4.59796 7.55206 4.59796 7.00004V5.73199L5.696 6.36601C5.85301 6.45702 6.02502 6.50002 6.19502 6.50002C6.54104 6.50002 6.87705 6.32101 7.06206 6C7.33807 5.52198 7.17406 4.90995 6.69604 4.63394L5.598 3.99992L6.69604 3.36589C7.17406 3.08988 7.33807 2.47786 7.06206 1.99984Z" fill="#454545"/>
<path d="M17.8054 6.50002C17.9754 6.50002 18.1474 6.45702 18.3045 6.36601L19.4025 5.73199V7.00004C19.4025 7.55206 19.8495 8.00008 20.4025 8.00008C20.9556 8.00008 21.4026 7.55206 21.4026 7.00004V5.73199L22.5006 6.36601C22.6576 6.45702 22.8296 6.50002 22.9996 6.50002C23.3457 6.50002 23.6817 6.32101 23.8667 6C24.1427 5.52198 23.9787 4.90995 23.5007 4.63394L22.4026 3.99992L23.5007 3.36589C23.9787 3.08988 24.1427 2.47786 23.8667 1.99984C23.5897 1.52082 22.9766 1.35681 22.5006 1.63382L21.4026 2.26785V0.999796C21.4026 0.447774 20.9556 -0.000244141 20.4025 -0.000244141C19.8495 -0.000244141 19.4025 0.447774 19.4025 0.999796V2.26785L18.3045 1.63382C17.8274 1.35681 17.2144 1.52082 16.9384 1.99984C16.6624 2.47786 16.8264 3.08988 17.3044 3.36589L18.4025 3.99992L17.3044 4.63394C16.8254 4.90995 16.6614 5.52198 16.9384 6C17.1244 6.32101 17.4604 6.50002 17.8054 6.50002Z" fill="#454545"/>
<path d="M6 10H0.999796C0.446774 10 -0.000244141 10.448 -0.000244141 11C-0.000244141 11.5521 0.446774 12.0001 0.999796 12.0001H6C6.55302 12.0001 7.00004 11.5521 7.00004 11C7.00004 10.448 6.55302 10 6 10Z" fill="#454545"/>
<path d="M14.5002 10H9.50004C8.94702 10 8.5 10.448 8.5 11C8.5 11.5521 8.94702 12.0001 9.50004 12.0001H14.5002C15.0533 12.0001 15.5003 11.5521 15.5003 11C15.5003 10.448 15.0533 10 14.5002 10Z" fill="#454545"/>
<path d="M23.0007 10H18.0005C17.4475 10 17.0005 10.448 17.0005 11C17.0005 11.5521 17.4475 12.0001 18.0005 12.0001H23.0007C23.5538 12.0001 24.0008 11.5521 24.0008 11C24.0008 10.448 23.5538 10 23.0007 10Z" fill="#454545"/>
</svg>
