<svg width="26" height="26" viewBox="0 0 26 26" fill="none" xmlns="http://www.w3.org/2000/svg">
<rect width="26" height="26" rx="7" fill="white"/>
<path d="M17.0858 14.5554C16.6138 14.5558 16.149 14.6635 15.7315 14.8692C15.3139 15.0748 14.9562 15.3724 14.6892 15.7361L10.6258 14.0217C10.9144 13.3705 10.9155 12.6391 10.6289 11.9872L14.6867 10.2641C15.0824 10.7988 15.6702 11.1834 16.3433 11.3479C17.0165 11.5124 17.7304 11.4461 18.3557 11.1609C18.981 10.8757 19.4762 10.3906 19.7514 9.79352C20.0267 9.19643 20.0638 8.52694 19.856 7.90648C19.6482 7.28602 19.2093 6.75569 18.6189 6.4117C18.0285 6.0677 17.3257 5.93282 16.6379 6.03151C15.9502 6.13021 15.3231 6.45595 14.8704 6.94965C14.4177 7.44334 14.1694 8.0723 14.1704 8.72242C14.1731 8.87629 14.1898 9.02968 14.2204 9.1809L9.90658 11.0125C9.49227 10.6498 8.9736 10.4081 8.41428 10.317C7.85496 10.226 7.27937 10.2896 6.7582 10.5C6.23704 10.7104 5.79301 11.0585 5.48066 11.5015C5.16831 11.9445 5.00125 12.463 5.00001 12.9935C4.99876 13.524 5.16338 14.0432 5.47364 14.4875C5.7839 14.9317 6.22629 15.2816 6.74646 15.4942C7.26663 15.7068 7.84192 15.7727 8.40166 15.684C8.9614 15.5952 9.48121 15.3557 9.89722 14.9947L14.2223 16.8192C14.1922 16.9703 14.1757 17.1235 14.1729 17.2771C14.1728 17.8156 14.3436 18.342 14.6637 18.7898C14.9838 19.2375 15.4388 19.5866 15.9712 19.7927C16.5036 19.9988 17.0895 20.0527 17.6547 19.9477C18.2199 19.8427 18.7391 19.5834 19.1466 19.2027C19.5541 18.8219 19.8316 18.3368 19.944 17.8087C20.0564 17.2805 19.9987 16.7331 19.7781 16.2357C19.5575 15.7382 19.184 15.3131 18.7048 15.014C18.2255 14.7149 17.6621 14.5553 17.0858 14.5554ZM17.0858 7.16675C17.4152 7.16663 17.7371 7.25778 18.011 7.42864C18.2849 7.59951 18.4984 7.84244 18.6245 8.12669C18.7506 8.41094 18.7837 8.72375 18.7195 9.02556C18.6553 9.32737 18.4968 9.60461 18.264 9.82224C18.0312 10.0399 17.7345 10.1881 17.4115 10.2482C17.0885 10.3082 16.7537 10.2775 16.4495 10.1597C16.1452 10.042 15.8851 9.8426 15.7021 9.58676C15.5192 9.33092 15.4215 9.03013 15.4215 8.72242C15.4218 8.31003 15.5973 7.9146 15.9093 7.62294C16.2213 7.33128 16.6445 7.16721 17.0858 7.16675ZM7.9301 14.5554C7.60078 14.5556 7.27881 14.4644 7.00493 14.2936C6.73104 14.1227 6.51754 13.8798 6.39143 13.5955C6.26532 13.3113 6.23226 12.9985 6.29643 12.6966C6.3606 12.3948 6.51913 12.1176 6.75195 11.9C6.98477 11.6823 7.28144 11.5341 7.60443 11.474C7.92742 11.414 8.26222 11.4447 8.56649 11.5625C8.87076 11.6802 9.13083 11.8796 9.3138 12.1354C9.49678 12.3913 9.59444 12.6921 9.59444 12.9998C9.59395 13.4121 9.41846 13.8075 9.10646 14.0991C8.79446 14.3907 8.37142 14.5548 7.9301 14.5554ZM17.0858 18.8328C16.7565 18.8328 16.4346 18.7416 16.1608 18.5706C15.887 18.3997 15.6736 18.1567 15.5476 17.8725C15.4216 17.5882 15.3886 17.2754 15.4529 16.9736C15.5171 16.6719 15.6757 16.3947 15.9085 16.1771C16.1414 15.9596 16.4381 15.8114 16.761 15.7514C17.084 15.6913 17.4188 15.7221 17.723 15.8399C18.0272 15.9576 18.2873 16.157 18.4702 16.4129C18.6532 16.6687 18.7508 16.9695 18.7508 17.2771C18.7505 17.6896 18.575 18.0851 18.2628 18.3768C17.9506 18.6685 17.5273 18.8325 17.0858 18.8328Z" fill="#0897A5"/>
</svg>
