<svg width="40" height="40" viewBox="0 0 40 40" fill="none" xmlns="http://www.w3.org/2000/svg">
<path d="M19.0168 10.8869C18.8472 10.8869 18.6845 10.8195 18.5644 10.6995L12.1298 4.2647C11.8799 4.01477 11.8799 3.60977 12.1298 3.35992C12.3798 3.11016 12.7848 3.11008 13.0345 3.36L19.0168 9.34246L28.1716 0.187325C28.4215 -0.0624418 28.8265 -0.0624418 29.0764 0.187325C29.3262 0.437249 29.3262 0.842252 29.0764 1.09202L19.4692 10.6995C19.3493 10.8195 19.1865 10.8869 19.0168 10.8869Z" fill="#D8DDE5"/>
<path d="M6.02553 36.459H3.42551C3.18996 36.459 2.99902 36.65 2.99902 36.8855V39.5738C2.99902 39.8094 3.19004 40.0002 3.42551 40.0002H5.24677C5.43662 40.0002 5.60357 39.8748 5.65646 39.6925L6.4353 37.0043C6.47264 36.8754 6.44717 36.7365 6.36655 36.6293C6.28592 36.5222 6.15967 36.459 6.02553 36.459Z" fill="#99A0AA"/>
<path d="M35.633 36.459H33.0329C32.8989 36.459 32.7726 36.5221 32.692 36.6293C32.6115 36.7365 32.586 36.8754 32.6233 37.0043L33.4021 39.6925C33.4549 39.8748 33.6219 40.0002 33.8118 40.0002H35.633C35.8687 40.0002 36.0595 39.8093 36.0595 39.5738V36.8855C36.0594 36.6501 35.8685 36.459 35.633 36.459Z" fill="#99A0AA"/>
<path d="M24.3185 11.3332C24.3185 10.7334 23.832 10.2472 23.2325 10.2472H14.8031C14.203 10.2472 13.7168 10.7335 13.7168 11.3332C13.7168 11.9332 14.203 12.4193 14.8031 12.4193H23.2324C23.832 12.4193 24.3185 11.9332 24.3185 11.3332Z" fill="#C3C8D1"/>
<path d="M9.20389 36.8569H2.40369C1.07634 36.8569 0 35.7809 0 34.4533V14.8233C0 13.4959 1.07634 12.4193 2.40369 12.4193H36.6555C37.9823 12.4193 39.0586 13.4959 39.0586 14.8233V34.4533C39.0586 35.7808 37.9823 36.8569 36.6555 36.8569H11.3933" fill="#324A5E"/>
<path opacity="0.15" d="M1.44923 34.4533V14.8233C1.44923 13.4959 2.52556 12.4193 3.85292 12.4193H2.40369C1.07634 12.4193 0 13.4959 0 14.8233V34.4533C0 35.7808 1.07634 36.8569 2.40369 36.8569H3.85284C2.52556 36.8569 1.44923 35.7809 1.44923 34.4533Z" fill="#454545"/>
<path d="M36.733 20.3582C36.733 21.5039 35.8042 22.4327 34.6585 22.4327C33.5131 22.4327 32.584 21.5039 32.584 20.3582C32.584 19.2124 33.5131 18.2837 34.6585 18.2837C35.8042 18.2836 36.733 19.2124 36.733 20.3582Z" fill="#6598CB"/>
<path d="M29.4494 16.0203H4.09934C3.86379 16.0203 3.67285 16.2113 3.67285 16.4468V32.8295C3.67285 33.0651 3.86387 33.256 4.09934 33.256H29.4494C29.6851 33.256 29.8759 33.065 29.8759 32.8295V16.4468C29.8759 16.2113 29.6851 16.0203 29.4494 16.0203Z" fill="#EF4C35"/>
<path opacity="0.15" d="M29.4494 16.0203H4.09934C3.86379 16.0203 3.67285 16.2113 3.67285 16.4468V32.8295C3.67285 33.0651 3.86387 33.256 4.09934 33.256H5.122V17.4696H29.8758V16.4469C29.8759 16.2113 29.6851 16.0203 29.4494 16.0203Z" fill="#454545"/>
<path d="M34.6583 19.7185C34.305 19.7185 34.0186 20.0048 34.0186 20.3582V22.3317C34.2201 22.397 34.435 22.4328 34.6583 22.4328C34.8816 22.4328 35.0966 22.3971 35.2981 22.3317V20.3582C35.2981 20.0049 35.0117 19.7185 34.6583 19.7185Z" fill="#3A75A5"/>
<path d="M36.7332 25.2782H32.5841C32.2307 25.2782 31.9443 24.9919 31.9443 24.6384C31.9443 24.2851 32.2307 23.9987 32.5841 23.9987H36.7332C37.0866 23.9987 37.373 24.2851 37.373 24.6384C37.373 24.9918 37.0865 25.2782 36.7332 25.2782Z" fill="#4A687C"/>
<path d="M36.7334 16.6601H35.8097C35.4563 16.6601 35.1699 16.3738 35.1699 16.0203C35.1699 15.6669 35.4563 15.3806 35.8097 15.3806H36.7332C37.0867 15.3806 37.373 15.6669 37.373 16.0203C37.3731 16.3738 37.0867 16.6601 36.7334 16.6601Z" fill="#6598CB"/>
<path d="M36.7332 27.4323H32.5841C32.2307 27.4323 31.9443 27.1459 31.9443 26.7925C31.9443 26.439 32.2307 26.1527 32.5841 26.1527H36.7332C37.0866 26.1527 37.373 26.439 37.373 26.7925C37.373 27.1459 37.0865 27.4323 36.7332 27.4323Z" fill="#4A687C"/>
<path d="M36.7332 29.587H32.5841C32.2307 29.587 31.9443 29.3006 31.9443 28.9472C31.9443 28.5939 32.2307 28.3074 32.5841 28.3074H36.7332C37.0866 28.3074 37.373 28.5938 37.373 28.9472C37.373 29.3006 37.0865 29.587 36.7332 29.587Z" fill="#4A687C"/>
<path d="M36.7332 31.7416H32.5841C32.2307 31.7416 31.9443 31.4552 31.9443 31.1018C31.9443 30.7484 32.2307 30.462 32.5841 30.462H36.7332C37.0866 30.462 37.373 30.7484 37.373 31.1018C37.373 31.4552 37.0865 31.7416 36.7332 31.7416Z" fill="#4A687C"/>
<path d="M36.7332 33.8958H32.5841C32.2307 33.8958 31.9443 33.6095 31.9443 33.256C31.9443 32.9026 32.2307 32.6163 32.5841 32.6163H36.7332C37.0866 32.6163 37.373 32.9026 37.373 33.256C37.373 33.6094 37.0865 33.8958 36.7332 33.8958Z" fill="#4A687C"/>
<path d="M9.49003 18.9678C9.49003 19.4872 9.06893 19.9083 8.54947 19.9083H6.58313C6.06367 19.9083 5.64258 19.4873 5.64258 18.9678C5.64258 18.4483 6.0636 18.0272 6.58313 18.0272H8.54939C9.06893 18.0271 9.49003 18.4483 9.49003 18.9678Z" fill="#F48A7F"/>
</svg>
