<svg width="51" height="51" viewBox="0 0 51 51" fill="none" xmlns="http://www.w3.org/2000/svg">
<path d="M30.9808 29.3248C31.2843 26.9351 29.7536 24.6501 27.2585 23.7682C25.671 23.207 24.8644 22.8766 24.638 22.7699C24.2756 22.5991 24.2867 22.4512 24.2939 22.3533C24.3117 22.1126 24.4883 21.8767 24.6282 21.8346C25.8588 21.4639 26.4916 21.866 26.5832 21.9861C27.2156 22.886 28.4572 23.1035 29.3577 22.4716C30.2583 21.8396 30.476 20.597 29.8439 19.6965C29.3081 18.933 28.4159 18.2726 27.2702 17.9359C27.05 17.0751 26.2694 16.4387 25.34 16.4387C24.3702 16.4387 23.5622 17.1316 23.3843 18.0494C21.6841 18.6055 20.4578 20.2041 20.3202 22.0589C20.1841 23.8948 21.1873 25.5482 22.9384 26.3739C23.4412 26.6109 24.5317 27.0305 25.9304 27.525C26.8169 27.8383 27.0726 28.4729 27.0281 28.8231C26.9668 29.3062 26.2312 29.422 25.9178 29.4493C25.0853 29.5221 23.9621 29.2737 23.5257 28.7319C22.8356 27.8751 21.5814 27.74 20.7245 28.4302C19.8676 29.1204 19.7325 30.3746 20.4227 31.2314C21.2153 32.2154 22.3119 32.8132 23.4293 33.1356C23.6732 33.9601 24.4363 34.5618 25.34 34.5618C26.1944 34.5618 26.9231 34.0239 27.2061 33.2682C29.2859 32.7761 30.73 31.3003 30.9808 29.3248Z" fill="#0897A5"/>
<path d="M41.4491 35.1595C42.5494 35.1595 43.4413 34.2676 43.4413 33.1673V7.96875C43.4413 3.57478 39.8665 0 35.4725 0H15.5273C11.1334 0 7.55859 3.57478 7.55859 7.96875V43.0312C7.55859 47.4252 11.1334 51 15.5273 51H35.4725C39.8665 51 43.4413 47.4252 43.4413 43.0287C43.4413 41.9284 42.5494 41.0378 41.4491 41.0378C40.3488 41.0378 39.4569 41.931 39.4569 43.0312C39.4569 45.2282 37.6695 47.0156 35.4725 47.0156H15.5273C13.3304 47.0156 11.543 45.2282 11.543 43.0312V7.96875C11.543 5.77177 13.3304 3.98438 15.5273 3.98438H35.4725C37.6695 3.98438 39.4569 5.77177 39.4569 7.96875V33.1673C39.4569 34.2676 40.3488 35.1595 41.4491 35.1595Z" fill="#0897A5"/>
<path d="M24.5527 38.9833C23.4524 38.9833 22.5605 39.8752 22.5605 40.9755C22.5605 42.0758 23.4524 42.9677 24.5527 42.9677H26.4474C27.5477 42.9677 28.4396 42.0758 28.4396 40.9755C28.4396 39.8752 27.5477 38.9833 26.4474 38.9833H24.5527Z" fill="#0897A5"/>
<path d="M35.3127 10.1453C35.3127 9.04502 34.4208 8.15312 33.3206 8.15312H17.6797C16.5794 8.15312 15.6875 9.04502 15.6875 10.1453C15.6875 11.2456 16.5794 12.1375 17.6797 12.1375H33.3205C34.4208 12.1375 35.3127 11.2456 35.3127 10.1453Z" fill="#0897A5"/>
</svg>
