<svg width="25" height="25" viewBox="0 0 25 25" fill="none" xmlns="http://www.w3.org/2000/svg">
<path d="M12.1411 0C9.74163 0 7.39601 0.71524 5.4009 2.05527C3.40579 3.39531 1.85079 5.29995 0.932539 7.52834C0.0142899 9.75674 -0.225966 12.2088 0.242153 14.5744C0.710273 16.9401 1.86574 19.1131 3.56244 20.8186C5.25915 22.5242 7.42088 23.6857 9.77427 24.1562C12.1277 24.6268 14.567 24.3853 16.7839 23.4622C19.0007 22.5392 20.8955 20.9761 22.2286 18.9706C23.5617 16.9651 24.2732 14.6073 24.2732 12.1953C24.2697 8.96196 22.9904 5.86207 20.716 3.57577C18.4415 1.28948 15.3577 0.00349708 12.1411 0V0ZM12.1411 22.358C10.1415 22.358 8.18686 21.762 6.52427 20.6453C4.86168 19.5286 3.56584 17.9414 2.80064 16.0844C2.03543 14.2274 1.83522 12.184 2.22532 10.2126C2.61541 8.24124 3.57831 6.43042 4.99222 5.00914C6.40614 3.58786 8.20759 2.61995 10.1687 2.22782C12.1299 1.83569 14.1627 2.03694 16.0101 2.80614C17.8575 3.57533 19.4364 4.87791 20.5473 6.54916C21.6583 8.22041 22.2512 10.1853 22.2512 12.1953C22.2483 14.8897 21.1821 17.4729 19.2868 19.3781C17.3914 21.2834 14.8216 22.355 12.1411 22.358V22.358Z" fill="#959595"/>
<path d="M12.1412 10.1628H11.1301C10.862 10.1628 10.6049 10.2698 10.4153 10.4604C10.2257 10.651 10.1191 10.9095 10.1191 11.179C10.1191 11.4486 10.2257 11.707 10.4153 11.8976C10.6049 12.0882 10.862 12.1953 11.1301 12.1953H12.1412V18.2929C12.1412 18.5625 12.2477 18.821 12.4373 19.0115C12.6269 19.2021 12.884 19.3092 13.1522 19.3092C13.4203 19.3092 13.6775 19.2021 13.8671 19.0115C14.0567 18.821 14.1632 18.5625 14.1632 18.2929V12.1953C14.1632 11.6562 13.9501 11.1392 13.5709 10.7581C13.1917 10.3769 12.6774 10.1628 12.1412 10.1628Z" fill="#959595"/>
<path d="M12.141 8.13015C12.9786 8.13015 13.6575 7.44765 13.6575 6.60574C13.6575 5.76383 12.9786 5.08133 12.141 5.08133C11.3035 5.08133 10.6245 5.76383 10.6245 6.60574C10.6245 7.44765 11.3035 8.13015 12.141 8.13015Z" fill="#959595"/>
</svg>
