<svg width="18" height="25" viewBox="0 0 18 25" fill="none" xmlns="http://www.w3.org/2000/svg">
<path d="M7 10.4167C6.20435 10.4167 5.44129 10.7459 4.87868 11.332C4.31607 11.918 4 12.7129 4 13.5417C4 14.3705 4.31607 15.1653 4.87868 15.7514C5.44129 16.3374 6.20435 16.6667 7 16.6667H11C11.7956 16.6667 12.5587 16.3374 13.1213 15.7514C13.6839 15.1653 14 14.3705 14 13.5417C14 12.7129 13.6839 11.918 13.1213 11.332C12.5587 10.7459 11.7956 10.4167 11 10.4167H7ZM12 13.5417C12 13.8179 11.8946 14.0829 11.7071 14.2782C11.5196 14.4736 11.2652 14.5833 11 14.5833H7C6.73478 14.5833 6.48043 14.4736 6.29289 14.2782C6.10536 14.0829 6 13.8179 6 13.5417C6 13.2654 6.10536 13.0005 6.29289 12.8051C6.48043 12.6098 6.73478 12.5 7 12.5H11C11.2652 12.5 11.5196 12.6098 11.7071 12.8051C11.8946 13.0005 12 13.2654 12 13.5417ZM14 19.7917C14 20.0679 13.8946 20.3329 13.7071 20.5282C13.5196 20.7236 13.2652 20.8333 13 20.8333H5C4.73478 20.8333 4.48043 20.7236 4.29289 20.5282C4.10536 20.3329 4 20.0679 4 19.7917C4 19.5154 4.10536 19.2505 4.29289 19.0551C4.48043 18.8598 4.73478 18.75 5 18.75H13C13.2652 18.75 13.5196 18.8598 13.7071 19.0551C13.8946 19.2505 14 19.5154 14 19.7917ZM16.536 3.25106L14.878 1.52606C14.4149 1.0409 13.864 0.656226 13.2572 0.394284C12.6504 0.132343 11.9998 -0.00166456 11.343 1.56054e-05H5C3.6744 0.00166962 2.40356 0.550934 1.46622 1.52733C0.528882 2.50372 0.00158786 3.82752 0 5.20835V19.7917C0.00158786 21.1725 0.528882 22.4963 1.46622 23.4727C2.40356 24.4491 3.6744 24.9984 5 25H13C14.3256 24.9984 15.5964 24.4491 16.5338 23.4727C17.4711 22.4963 17.9984 21.1725 18 19.7917V6.93439C18.0019 6.2501 17.8735 5.57222 17.6222 4.93998C17.3709 4.30774 17.0017 3.73369 16.536 3.25106V3.25106ZM15.122 4.72397C15.2627 4.87234 15.3893 5.03455 15.5 5.20835H13V2.60418C13.1671 2.71827 13.3226 2.84986 13.464 2.99689L15.122 4.72397ZM16 19.7917C16 20.6205 15.6839 21.4153 15.1213 22.0014C14.5587 22.5874 13.7956 22.9167 13 22.9167H5C4.20435 22.9167 3.44129 22.5874 2.87868 22.0014C2.31607 21.4153 2 20.6205 2 19.7917V5.20835C2 4.37955 2.31607 3.58469 2.87868 2.99864C3.44129 2.41259 4.20435 2.08335 5 2.08335H11V5.20835C11 5.76088 11.2107 6.29079 11.5858 6.68149C11.9609 7.07219 12.4696 7.29168 13 7.29168H16V19.7917Z" fill="#959595"/>
</svg>
