<svg width="26" height="25" viewBox="0 0 26 25" fill="none" xmlns="http://www.w3.org/2000/svg">
<path d="M24.3311 9.11727L16.6626 1.47288C15.7135 0.529661 14.4279 0 13.0877 0C11.7474 0 10.4618 0.529661 9.51274 1.47288L1.84425 9.11727C1.5616 9.39719 1.33751 9.73025 1.18496 10.0971C1.03241 10.464 0.954444 10.8574 0.955579 11.2546V21.1472C0.955579 21.9489 1.27513 22.7179 1.84393 23.2848C2.41273 23.8517 3.18419 24.1703 3.9886 24.1703H22.1867C22.9911 24.1703 23.7626 23.8517 24.3314 23.2848C24.9002 22.7179 25.2197 21.9489 25.2197 21.1472V11.2546C25.2209 10.8574 25.1429 10.464 24.9903 10.0971C24.8378 9.73025 24.6137 9.39719 24.3311 9.11727V9.11727ZM16.1207 22.1549H10.0546V18.1906C10.0546 17.3888 10.3742 16.6199 10.943 16.0529C11.5118 15.486 12.2832 15.1675 13.0877 15.1675C13.8921 15.1675 14.6635 15.486 15.2323 16.0529C15.8011 16.6199 16.1207 17.3888 16.1207 18.1906V22.1549ZM23.1977 21.1472C23.1977 21.4144 23.0912 21.6707 22.9016 21.8597C22.712 22.0487 22.4548 22.1549 22.1867 22.1549H18.1427V18.1906C18.1427 16.8543 17.6101 15.5727 16.6621 14.6278C15.7141 13.6829 14.4283 13.1521 13.0877 13.1521C11.747 13.1521 10.4612 13.6829 9.51321 14.6278C8.5652 15.5727 8.03262 16.8543 8.03262 18.1906V22.1549H3.9886C3.72046 22.1549 3.46331 22.0487 3.27371 21.8597C3.08411 21.6707 2.97759 21.4144 2.97759 21.1472V11.2546C2.97853 10.9875 3.08495 10.7316 3.27382 10.5422L10.9423 2.90078C11.5122 2.33539 12.2836 2.01798 13.0877 2.01798C13.8917 2.01798 14.6631 2.33539 15.233 2.90078L22.9015 10.5452C23.0896 10.7339 23.196 10.9886 23.1977 11.2546V21.1472Z" fill="#0897A5"/>
</svg>
