<svg width="24" height="25" viewBox="0 0 24 25" fill="none" xmlns="http://www.w3.org/2000/svg">
<path d="M7.5 13.5417C6.60998 13.5417 5.73995 13.2668 4.99993 12.7517C4.25991 12.2366 3.68314 11.5045 3.34254 10.648C3.00195 9.79147 2.91283 8.84897 3.08647 7.93968C3.2601 7.0304 3.68868 6.19516 4.31802 5.53961C4.94736 4.88405 5.74918 4.43761 6.62209 4.25674C7.49501 4.07587 8.39981 4.1687 9.22208 4.52348C10.0443 4.87827 10.7471 5.47908 11.2416 6.24993C11.7361 7.02079 12 7.92707 12 8.85417C11.9987 10.0969 11.5241 11.2884 10.6805 12.1672C9.83689 13.046 8.69307 13.5403 7.5 13.5417V13.5417ZM7.5 6.25C7.00555 6.25 6.5222 6.40273 6.11107 6.68888C5.69995 6.97503 5.37952 7.38175 5.1903 7.8576C5.00108 8.33345 4.95157 8.85706 5.04804 9.36222C5.1445 9.86738 5.3826 10.3314 5.73223 10.6956C6.08186 11.0598 6.52732 11.3078 7.01227 11.4083C7.49723 11.5088 7.99989 11.4572 8.45671 11.2601C8.91352 11.063 9.30397 10.7292 9.57867 10.301C9.85338 9.87271 10 9.36922 10 8.85417C10 8.1635 9.73661 7.50112 9.26777 7.01274C8.79893 6.52437 8.16304 6.25 7.5 6.25ZM15 23.9583V23.4375C15 21.3655 14.2098 19.3784 12.8033 17.9132C11.3968 16.4481 9.48912 15.625 7.5 15.625C5.51088 15.625 3.60322 16.4481 2.1967 17.9132C0.790176 19.3784 0 21.3655 0 23.4375L0 23.9583C0 24.2346 0.105357 24.4996 0.292893 24.6949C0.48043 24.8903 0.734784 25 1 25C1.26522 25 1.51957 24.8903 1.70711 24.6949C1.89464 24.4996 2 24.2346 2 23.9583V23.4375C2 21.918 2.57946 20.4608 3.61091 19.3864C4.64236 18.3119 6.04131 17.7083 7.5 17.7083C8.95869 17.7083 10.3576 18.3119 11.3891 19.3864C12.4205 20.4608 13 21.918 13 23.4375V23.9583C13 24.2346 13.1054 24.4996 13.2929 24.6949C13.4804 24.8903 13.7348 25 14 25C14.2652 25 14.5196 24.8903 14.7071 24.6949C14.8946 24.4996 15 24.2346 15 23.9583ZM24 18.75C24 17.3424 23.6088 15.9649 22.8737 14.7837C22.1386 13.6026 21.091 12.6683 19.8574 12.0937C18.6238 11.5191 17.2569 11.3287 15.9218 11.5456C14.5866 11.7624 13.3402 12.3771 12.333 13.3156C12.2338 13.4065 12.1528 13.5169 12.0948 13.6405C12.0367 13.7641 12.0028 13.8985 11.9949 14.0358C11.987 14.1732 12.0053 14.3108 12.0487 14.4408C12.0922 14.5707 12.1599 14.6904 12.2481 14.7929C12.3362 14.8955 12.4429 14.9788 12.5621 15.0381C12.6813 15.0974 12.8106 15.1315 12.9426 15.1384C13.0745 15.1454 13.2064 15.1251 13.3308 15.0786C13.4551 15.0321 13.5694 14.9604 13.667 14.8677C14.3865 14.1975 15.2767 13.7586 16.2304 13.6038C17.1841 13.4491 18.1604 13.5851 19.0414 13.9956C19.9225 14.4061 20.6706 15.0734 21.1956 15.9171C21.7206 16.7607 22 17.7446 22 18.75C22 19.0263 22.1054 19.2912 22.2929 19.4866C22.4804 19.6819 22.7348 19.7917 23 19.7917C23.2652 19.7917 23.5196 19.6819 23.7071 19.4866C23.8946 19.2912 24 19.0263 24 18.75ZM17.5 9.375C16.61 9.375 15.74 9.10008 14.9999 8.58502C14.2599 8.06995 13.6831 7.33786 13.3425 6.48133C13.0019 5.6248 12.9128 4.6823 13.0865 3.77302C13.2601 2.86373 13.6887 2.0285 14.318 1.37294C14.9474 0.71738 15.7492 0.270939 16.6221 0.0900711C17.495 -0.0907971 18.3998 0.00203103 19.2221 0.356817C20.0443 0.711603 20.7471 1.31241 21.2416 2.08327C21.7361 2.85412 22 3.7604 22 4.6875C21.9987 5.93028 21.5241 7.12176 20.6805 8.00054C19.8369 8.87932 18.6931 9.37362 17.5 9.375V9.375ZM17.5 2.08334C17.0055 2.08334 16.5222 2.23607 16.1111 2.52222C15.7 2.80837 15.3795 3.21508 15.1903 3.69093C15.0011 4.16678 14.9516 4.69039 15.048 5.19555C15.1445 5.70071 15.3826 6.16473 15.7322 6.52893C16.0819 6.89312 16.5273 7.14115 17.0123 7.24163C17.4972 7.34211 17.9999 7.29054 18.4567 7.09344C18.9135 6.89634 19.304 6.56255 19.5787 6.1343C19.8534 5.70605 20 5.20256 20 4.6875C20 3.99683 19.7366 3.33445 19.2678 2.84608C18.7989 2.3577 18.163 2.08334 17.5 2.08334V2.08334Z" fill="#959595"/>
</svg>
